<svg width="16" height="32" viewBox="0 0 16 32" fill="none" xmlns="http://www.w3.org/2000/svg">
<path d="M16 16.6936C16 15.4913 15.3103 14.5202 14.7126 13.6879C14.2529 13.0867 13.8391 12.4855 13.7011 11.8844C13.6552 11.7457 13.7471 11.4682 13.8851 11.237C14.023 10.9133 14.1609 10.5896 14.1609 10.1734C14.1609 9.10983 13.5172 8.27746 12.9655 7.58382C12.5977 7.12139 12.2299 6.65896 12.092 6.19653C12.092 6.15029 12.1379 6.01156 12.1839 5.91908C12.2759 5.7341 12.3218 5.50289 12.3218 5.22543C12.3218 3.14451 10.4828 0 8.04598 0C5.6092 0 3.72414 3.19075 3.72414 5.22543C3.72414 5.50289 3.81609 5.7341 3.86207 5.91908C3.90805 6.01156 3.95402 6.15029 3.95402 6.15029C3.81609 6.65896 3.44828 7.07514 3.08046 7.53757C2.52874 8.23121 1.88506 9.01734 1.88506 10.1272C1.88506 10.5434 2.02299 10.8671 2.16092 11.1908C2.25287 11.4682 2.34483 11.6994 2.34483 11.8382C2.2069 12.4855 1.7931 13.0405 1.33333 13.6416C0.689655 14.5202 0 15.4913 0 16.6936C0 20.4393 3.81609 21.1329 7.26437 21.2717L7.03448 31.5838C7.03448 31.6763 7.08046 31.815 7.12644 31.8613C7.21839 31.9538 7.31034 32 7.4023 32H8.55172C8.64368 32 8.78161 31.9538 8.82759 31.8613C8.91954 31.7688 8.96552 31.6763 8.91954 31.5838L8.73563 21.2717H8.78161C12.7356 21.2717 16 20.948 16 16.6936ZM8.68965 18.2197L13.3333 15.6301C13.5172 15.5376 13.6092 15.3064 13.5172 15.0751C13.4253 14.8902 13.1954 14.7977 12.9655 14.8902L8.68965 16.9711L8.50575 12.0231L10.2989 10.8208C10.4828 10.6821 10.5287 10.4509 10.4368 10.2659C10.3448 10.0809 10.1149 9.98844 9.93103 10.1272L8.55172 10.8208L8.41379 6.47399C8.41379 6.24277 8.22988 6.0578 8 6.0578C7.77011 6.0578 7.58621 6.24277 7.58621 6.47399L7.4023 13.9653L4.32184 13.2717C4.09195 13.2254 3.90805 13.3642 3.86207 13.5491C3.81609 13.7803 3.90805 13.9653 4.13793 14.0578L7.4023 15.0751L7.26437 20.1618C2.94253 20.0231 1.05747 18.9595 1.05747 16.6936C1.05747 15.815 1.56322 15.0751 2.16092 14.289C2.62069 13.6416 3.12644 12.948 3.35632 12.0694C3.49425 11.5607 3.31034 11.1445 3.12644 10.7283C3.03448 10.4971 2.94253 10.2659 2.94253 10.0809C2.94253 9.38728 3.4023 8.83237 3.90805 8.18497C4.32184 7.6763 4.78161 7.12139 5.01149 6.42775C5.14943 6.0578 5.01149 5.7341 4.91954 5.45665C4.87356 5.36416 4.82759 5.22543 4.82759 5.17919C4.82759 3.60694 6.29885 1.01734 8 1.01734C9.70115 1.01734 11.1724 3.60694 11.1724 5.17919C11.1724 5.22543 11.1264 5.36416 11.0805 5.45665C10.9885 5.68786 10.8506 6.0578 10.9885 6.42775C11.2184 7.12139 11.6322 7.63006 12.092 8.18497C12.5977 8.83237 13.0575 9.38728 13.0575 10.0809C13.0575 10.2659 12.9655 10.4971 12.8736 10.7283C12.7356 11.0983 12.5517 11.5607 12.6437 12.0694C12.8276 12.9017 13.3333 13.5954 13.8391 14.289C14.3908 15.0751 14.9425 15.815 14.9425 16.6936C14.9425 19.6994 13.0575 20.2081 8.78161 20.2081C8.73563 20.2081 8.73563 20.2081 8.68965 20.2081V18.2197Z" fill="white"/>
</svg>

