<svg width="34" height="36" viewBox="0 0 34 36" fill="none" xmlns="http://www.w3.org/2000/svg">
<path d="M33.31 16.7968C33.1763 14.4572 32.7752 12.1177 32.1736 9.84493C31.9731 9.10963 30.9704 9.10963 30.703 9.84493C30.703 9.91177 29.9009 12.2513 25.8902 12.9866C21.3447 13.7888 16.3982 16.9305 16.1308 21.877C16.064 23.6818 16.5987 25.4198 17.6682 26.8235C17.6014 26.8904 17.5346 26.8904 17.4677 26.9572C14.2592 29.0294 11.6522 30.6337 10.6495 34.4439C10.5158 34.8449 10.7832 35.246 11.1843 35.3797C11.5854 35.5134 11.9864 35.246 12.1201 34.8449C12.9891 31.6364 15.195 30.2326 18.2699 28.2941L18.6709 28.0268C19.2725 28.5615 19.941 29.0294 20.6094 29.3636C21.6789 29.8984 22.8822 30.1658 24.0854 30.1658C26.0907 30.1658 28.0292 29.4305 29.4998 28.0936C32.2404 25.8209 33.5773 21.877 33.31 16.7968ZM17.6682 21.877C17.8688 17.7995 22.2137 15.1257 26.1576 14.3904C27.6281 14.1898 28.965 13.5882 30.1682 12.7193C29.4998 14.9251 28.0292 18.1337 24.4864 21.4759C24.0854 21.877 23.6843 22.2112 23.2832 22.5455C22.949 21.6096 22.7485 20.6738 22.8153 19.6711C22.949 18.6685 21.4116 18.5348 21.2779 19.5374C21.1442 20.8743 21.7458 22.6792 22.0132 23.615C20.9436 24.484 19.8742 25.2193 18.8715 25.8877C18.0693 24.8182 17.6014 23.3476 17.6682 21.877ZM28.6308 26.8904C26.4249 28.6952 23.7511 29.0963 21.3447 27.9599C20.8768 27.7594 20.4089 27.4251 20.0078 27.0909C22.0132 25.8209 23.8848 24.2834 25.556 22.6792C26.0239 22.2112 26.4249 21.8102 26.826 21.3423C27.3608 21.4759 27.8955 21.6096 28.4303 21.6096C29.0987 21.6096 29.7004 21.4759 30.2351 21.1417C31.1041 20.5401 30.2351 19.3369 29.3661 19.8717C28.8982 20.0722 28.4303 20.139 27.8955 20.0722C29.433 18.2005 30.5693 16.1284 31.3714 13.8556C32.1067 17.6658 32.3073 23.7487 28.6308 26.8904Z" fill="white"/>
<path d="M17.8022 14.1229C17.8691 12.3181 17.3343 10.5801 16.2648 9.17638C16.3316 9.10953 16.3985 9.10953 16.4653 9.04269C19.6739 6.97049 22.2808 5.36622 23.2835 1.55606C23.4172 1.15499 23.1498 0.753916 22.7488 0.620226C22.3477 0.486536 21.9466 0.753916 21.8129 1.15499C20.9439 4.36354 18.738 5.76729 15.6632 7.77263L15.2621 8.04001C14.6605 7.50525 13.9921 7.03734 13.3236 6.70311C10.3824 5.23253 7.04021 5.70044 4.36641 7.97317C1.69261 10.2459 0.422534 14.1229 0.623069 19.2031C0.756759 21.5427 1.15784 23.8823 1.75944 26.155C1.82629 26.4892 2.16054 26.6898 2.49476 26.6898C2.82898 26.6898 3.09635 26.4892 3.23004 26.155C3.23004 26.0881 4.03219 23.7486 8.04288 23.0133C12.6552 22.2111 17.6017 19.0694 17.8022 14.1229ZM5.36908 9.10953C6.63914 8.04001 8.17658 7.43841 9.8477 7.37156C10.8504 7.37156 11.7862 7.5721 12.6552 8.04001C13.1231 8.24055 13.591 8.57477 13.9921 8.909C11.9867 10.1791 10.1151 11.7165 8.44393 13.3208C7.97602 13.7887 7.57497 14.1897 7.1739 14.6577C6.37177 14.4571 4.83431 14.1229 3.76479 14.925C2.8958 15.5266 3.76478 16.7299 4.63376 16.1951C5.10168 15.9946 5.5696 15.9277 6.10436 15.9946C4.56693 17.8662 3.43056 19.9384 2.62842 22.2111C1.89312 18.2673 1.69261 12.1844 5.36908 9.10953ZM7.84235 21.5427C6.37177 21.7432 5.03487 22.3448 3.83166 23.2138C4.70064 20.54 6.10435 18.0668 7.97601 15.9946C8.44393 15.4598 8.91187 14.925 9.51348 14.3903C9.91455 13.9892 10.3156 13.655 10.7167 13.3208C11.0509 14.2566 11.2514 15.1924 11.1846 16.1951C11.0509 17.1978 12.5883 17.3315 12.722 16.3288C12.8557 14.9919 12.2541 13.1871 11.9867 12.2512C13.0562 11.3823 14.1258 10.647 15.1284 9.97852C15.9974 11.1149 16.4653 12.5855 16.3985 14.0561C16.1311 18.1336 11.7862 20.8074 7.84235 21.5427Z" fill="white"/>
</svg>

