<svg width="28" height="28" viewBox="0 0 28 28" fill="none" xmlns="http://www.w3.org/2000/svg">
<path d="M24.6441 0.093535C24.4578 0.0476547 24.2714 0.00177429 24.0851 0.00177429C23.1068 0.00177429 22.3148 0.781741 22.3148 1.74523V4.22277H11.3205C10.8546 4.22277 10.3887 4.40629 10.0626 4.72745L8.99114 5.7827C8.85138 5.92034 8.61845 5.92034 8.43211 5.7827L7.36062 4.72745C7.03452 4.40629 6.56866 4.22277 6.1028 4.22277H5.59035V1.74523C5.59035 1.19466 5.31083 0.6441 4.84497 0.322937C4.42569 0.00177429 3.86666 -0.0899865 3.30762 0.093535C1.351 0.781741 0 2.66284 0 4.72745V22.6667C0 25.3736 2.23614 27.5759 4.98473 27.5759H15.9325C16.3984 27.5759 16.8642 27.3924 17.1903 27.0712L18.2618 26.016C18.4016 25.8783 18.6345 25.8783 18.8208 26.016L19.8923 27.0712C20.2184 27.3924 20.6843 27.5759 21.1501 27.5759H23.0602C24.0851 27.5759 25.11 27.2547 25.9485 26.6583C26.2746 26.4289 26.3212 26.016 26.1349 25.6948C25.9019 25.3736 25.4827 25.3277 25.1566 25.5113C24.5509 25.9242 23.8521 26.1536 23.1068 26.1536H21.1967C21.1036 26.1536 21.0104 26.1077 20.9172 26.0618L19.8457 25.0066C19.1469 24.3184 18.0289 24.3184 17.3767 25.0066L16.3052 26.0618C16.212 26.1536 16.1188 26.1536 16.0257 26.1536H4.98473C2.98152 26.1536 1.39759 24.5478 1.39759 22.6208C1.39759 20.9691 2.60883 19.5009 4.28593 19.1339C5.12448 18.9504 5.68352 18.2622 5.68352 17.4363V14.7294C5.68352 14.3623 5.35742 14.0412 4.98473 14.0412C4.61204 14.0412 4.28593 14.3623 4.28593 14.7294V17.4363C4.28593 17.6198 4.14617 17.7575 3.95983 17.8034C2.98152 18.0786 2.04979 18.5374 1.39759 19.2715V4.72745C1.39759 3.2134 2.32931 1.88287 3.77348 1.37819C3.91324 1.33231 4.00642 1.37819 4.09959 1.42407C4.19276 1.51583 4.28593 1.60759 4.28593 1.74523V13.2612C4.28593 13.6282 4.61204 13.9494 4.98473 13.9494C5.35742 13.9494 5.68352 13.6282 5.68352 13.2612V5.5533H6.19597C6.28914 5.5533 6.38231 5.59918 6.47549 5.64506L7.54697 6.70031C7.87307 7.02147 8.33893 7.20499 8.8048 7.20499C9.27066 7.20499 9.73652 7.02147 10.0626 6.70031L11.1341 5.64506C11.2273 5.5533 11.3205 5.5533 11.4136 5.5533H22.408V10.4166C22.408 10.8754 22.5943 11.3342 22.9204 11.6554L23.9919 12.7106C24.0851 12.8024 24.0851 12.8942 24.0851 12.9859C24.0851 13.0777 24.0385 13.1694 23.9919 13.2612L22.8273 14.2706C22.5011 14.5917 22.3148 15.0505 22.3148 15.5093V17.4822C22.3148 18.308 22.9204 18.9963 23.7124 19.1798C25.3895 19.5009 26.6007 20.9691 26.6007 22.6667C26.6007 23.4008 26.3678 24.089 25.9951 24.6395C25.7622 24.9607 25.8554 25.3736 26.1815 25.603C26.5076 25.7865 26.9268 25.7407 27.1598 25.4195C27.7188 24.5937 27.9983 23.6761 27.9983 22.6667V4.72745C27.9517 2.66284 26.6473 0.781741 24.6441 0.093535ZM26.6007 19.2715C25.9019 18.5374 25.0168 18.0786 23.9919 17.8492C23.8056 17.8034 23.6658 17.6657 23.6658 17.4822V15.5093C23.6658 15.4176 23.7124 15.3258 23.759 15.2341L24.8305 14.1788C25.5293 13.4906 25.5293 12.3895 24.8305 11.7472L23.759 10.6919C23.6658 10.6001 23.6658 10.5084 23.6658 10.4166V1.74523C23.6658 1.51583 23.8987 1.28642 24.1783 1.37819C25.6224 1.88287 26.6007 3.2134 26.6007 4.72745V19.2715Z" fill="white"/>
<path d="M11.4141 9.91182C11.4141 8.81069 10.529 7.93896 9.41092 7.93896C8.29285 7.93896 7.40771 8.81069 7.40771 9.91182C7.40771 11.013 8.29285 11.8847 9.41092 11.8847C10.4824 11.9306 11.4141 11.013 11.4141 9.91182ZM9.36433 11.1047C8.71213 11.1047 8.15309 10.5541 8.15309 9.91182C8.15309 9.2695 8.71213 8.71893 9.36433 8.71893C10.0165 8.71893 10.5756 9.2695 10.5756 9.91182C10.5756 10.6 10.0631 11.1047 9.36433 11.1047Z" fill="white"/>
<path d="M20.4982 17.1151C20.3585 16.9774 20.079 16.9774 19.9392 17.1151L19.1472 17.895L18.3553 17.1151C18.2155 16.9774 17.936 16.9774 17.7962 17.1151C17.6565 17.2527 17.6565 17.528 17.7962 17.6656L18.5882 18.4456L17.7962 19.2256C17.6565 19.3632 17.6565 19.6385 17.7962 19.7761C17.8894 19.8679 17.9826 19.9138 18.0757 19.9138C18.1689 19.9138 18.2621 19.8679 18.3553 19.7761L19.1472 18.9962L19.9392 19.7761C20.0324 19.8679 20.1255 19.9138 20.2187 19.9138C20.3119 19.9138 20.4051 19.8679 20.4982 19.7761C20.638 19.6385 20.638 19.3632 20.4982 19.2256L19.7063 18.4456L20.4982 17.6656C20.638 17.528 20.638 17.2986 20.4982 17.1151Z" fill="white"/>
<path d="M13.1372 10.3247H13.5099C13.7429 10.3247 13.9292 10.1412 13.9292 9.91182C13.9292 9.68242 13.7429 9.4989 13.5099 9.4989H13.0907C12.8577 9.4989 12.6714 9.68242 12.6714 9.91182C12.718 10.1412 12.9043 10.3247 13.1372 10.3247Z" fill="white"/>
<path d="M19.3331 12.4811C19.566 12.4811 19.7524 12.2976 19.7524 12.1141C19.7524 12.0682 19.7524 12.0223 19.7524 11.9764C19.7524 11.7011 19.7058 11.4259 19.6126 11.1964C19.5195 10.967 19.3331 10.8753 19.1002 10.967C18.8672 11.0588 18.7741 11.2423 18.8672 11.4717C18.9138 11.6553 18.9604 11.8388 18.9604 12.0223C18.9604 12.0682 18.9604 12.0682 18.9604 12.1141C18.9138 12.2976 19.1002 12.4811 19.3331 12.4811Z" fill="white"/>
<path d="M16.3053 9.91182C16.3053 9.68242 16.119 9.4989 15.886 9.4989H15.0941C14.8611 9.4989 14.6748 9.68242 14.6748 9.91182C14.6748 10.1412 14.8611 10.3247 15.0941 10.3247H15.886C16.119 10.3247 16.3053 10.1412 16.3053 9.91182Z" fill="white"/>
<path d="M16.8644 13.9952C16.8644 13.7658 16.6781 13.5823 16.4451 13.5823H15.6532C15.4202 13.5823 15.2339 13.7658 15.2339 13.9952C15.2339 14.2246 15.4202 14.4081 15.6532 14.4081H16.4451C16.6781 14.4081 16.8644 14.2246 16.8644 13.9952Z" fill="white"/>
<path d="M18.2152 10.5542C18.355 10.5542 18.4948 10.4624 18.5879 10.3247C18.6811 10.1412 18.6345 9.91182 18.4016 9.77418C18.1221 9.63654 17.8425 9.54478 17.5164 9.4989C17.2835 9.4989 17.0972 9.63654 17.0972 9.86594C17.0972 10.0953 17.2369 10.2789 17.4699 10.2789C17.7028 10.2789 17.8891 10.3706 18.0755 10.4624C18.0755 10.5542 18.1687 10.5542 18.2152 10.5542Z" fill="white"/>
<path d="M18.0288 14.2705C18.0754 14.2705 18.122 14.2705 18.1686 14.2246C18.4481 14.087 18.7276 13.9494 18.9605 13.7199C19.1003 13.5823 19.1469 13.307 18.9605 13.1694C18.8208 13.0317 18.5413 12.9859 18.4015 13.1694C18.2617 13.307 18.0754 13.4447 17.8891 13.4905C17.7027 13.5823 17.5629 13.8117 17.6561 13.9952C17.7027 14.1788 17.8891 14.2705 18.0288 14.2705Z" fill="white"/>
<path d="M11.4602 23.7218C11.5068 23.7218 11.5534 23.7218 11.5534 23.7218C11.8329 23.6301 12.1124 23.4924 12.3919 23.3548C12.5783 23.2172 12.6249 22.9878 12.4851 22.8042C12.3454 22.6207 12.1124 22.5748 11.9261 22.7125C11.7397 22.8501 11.5534 22.9419 11.3205 22.9878C11.0875 23.0336 10.9944 23.263 11.0409 23.4924C11.1341 23.6301 11.3205 23.7218 11.4602 23.7218Z" fill="white"/>
<path d="M10.9476 14.4081H11.7396C11.9725 14.4081 12.1588 14.2246 12.1588 13.9952C12.1588 13.7658 11.9725 13.5823 11.7396 13.5823H10.9476C10.7147 13.5823 10.5283 13.7658 10.5283 13.9952C10.5749 14.2246 10.7147 14.4081 10.9476 14.4081Z" fill="white"/>
<path d="M8.99093 23.1713C9.22386 23.3548 9.50338 23.4924 9.78289 23.6301C9.82948 23.6301 9.87607 23.6759 9.92265 23.6759C10.0624 23.6759 10.2488 23.5842 10.2953 23.4007C10.3885 23.2171 10.2488 22.9877 10.0624 22.896C9.87607 22.8042 9.64314 22.7124 9.50338 22.5748C9.31704 22.4372 9.08411 22.483 8.94435 22.6207C8.80459 22.8042 8.80459 23.0336 8.99093 23.1713Z" fill="white"/>
<path d="M12.9975 22.1619C13.044 22.1619 13.0906 22.2078 13.1372 22.2078C13.3236 22.2078 13.4633 22.116 13.5099 21.9325C13.6031 21.6572 13.6497 21.336 13.6962 21.0608C13.6962 20.8313 13.5099 20.6478 13.3236 20.6478C13.0906 20.6478 12.9509 20.8313 12.9043 21.0149C12.9043 21.2443 12.8577 21.4278 12.7645 21.6572C12.6713 21.8866 12.8111 22.116 12.9975 22.1619Z" fill="white"/>
<path d="M8.29232 17.3443C8.52525 17.3443 8.71159 17.1608 8.71159 16.9314V16.1514C8.71159 15.922 8.52525 15.7385 8.29232 15.7385C8.05939 15.7385 7.87305 15.922 7.87305 16.1514V16.9314C7.91963 17.1608 8.10598 17.3443 8.29232 17.3443Z" fill="white"/>
<path d="M7.91992 19.2715C7.91992 19.5009 8.10627 19.6844 8.3392 19.6844C8.57213 19.6844 8.75847 19.5009 8.75847 19.2715V18.4915C8.75847 18.2621 8.57213 18.0786 8.3392 18.0786C8.10627 18.0786 7.91992 18.2621 7.91992 18.4915V19.2715Z" fill="white"/>
<path d="M9.13102 15.0046C9.27078 14.8669 9.45712 14.7293 9.64347 14.6375C9.82981 14.5458 9.92298 14.3164 9.82981 14.087C9.73664 13.9034 9.50371 13.8117 9.27078 13.9034C8.99126 14.0411 8.75833 14.2246 8.5254 14.4999C8.38564 14.6834 8.38564 14.9128 8.57199 15.0504C8.66516 15.0963 8.75833 15.1422 8.85151 15.1422C8.94468 15.1422 9.03785 15.0963 9.13102 15.0046Z" fill="white"/>
<path d="M7.91963 20.9689C7.91963 21.1983 7.96622 21.4736 8.0128 21.703C8.05939 21.8865 8.24573 21.9782 8.38549 21.9782C8.43208 21.9782 8.43208 21.9782 8.47866 21.9782C8.71159 21.9324 8.80476 21.703 8.75817 21.4736C8.71159 21.29 8.71159 21.1065 8.71159 20.923V20.7854C8.71159 20.556 8.52525 20.3724 8.29232 20.3724C8.05939 20.3724 7.87305 20.556 7.87305 20.7854V20.9689H7.91963Z" fill="white"/>
<path d="M14.116 13.6281H13.3241C13.0911 13.6281 12.9048 13.8116 12.9048 14.041C12.9048 14.2704 13.0911 14.4539 13.3241 14.4539H14.116C14.349 14.4539 14.5353 14.2704 14.5353 14.041C14.5353 13.8116 14.349 13.6281 14.116 13.6281Z" fill="white"/>
<path d="M13.8831 19.7302C13.9762 19.5467 14.116 19.3632 14.3024 19.2256C14.4887 19.0879 14.4887 18.8585 14.3489 18.675C14.2092 18.4915 13.9762 18.4915 13.7899 18.6291C13.557 18.8126 13.3706 19.0879 13.1843 19.3632C13.0911 19.5467 13.1377 19.7761 13.324 19.9138C13.3706 19.9596 13.4638 19.9596 13.5104 19.9596C13.6967 19.9138 13.8365 19.8679 13.8831 19.7302Z" fill="white"/>
<path d="M15.513 18.8584H15.9323C16.1652 18.8584 16.3516 18.6749 16.3516 18.4455C16.3516 18.2161 16.1652 18.0326 15.9323 18.0326H15.513C15.2801 18.0326 15.0938 18.2161 15.0938 18.4455C15.0938 18.6749 15.2801 18.8584 15.513 18.8584Z" fill="white"/>
</svg>

