<svg width="35" height="34" viewBox="0 0 35 34" fill="none" xmlns="http://www.w3.org/2000/svg">
<path d="M18.0002 11.3181C14.5243 11.3181 11.7168 14.1256 11.7168 17.6015C11.7168 21.0775 14.5243 23.885 18.0002 23.885C21.4762 23.885 24.2836 21.0775 24.2836 17.6015C24.2836 14.1256 21.4762 11.3181 18.0002 11.3181ZM18.0002 22.0133C15.5938 22.0133 13.5885 20.008 13.5885 17.6015C13.5885 15.1951 15.5938 13.1898 18.0002 13.1898C20.4066 13.1898 22.412 15.1951 22.412 17.6015C22.412 20.0748 20.4066 22.0133 18.0002 22.0133Z" fill="white"/>
<path d="M34.6446 12.5214C34.043 10.6498 32.7061 9.04548 30.9013 8.1765C29.2302 7.30751 27.2917 7.10698 25.42 7.64174C25.2863 3.63104 21.9441 0.422485 17.9334 0.422485C13.9227 0.422485 10.5804 3.63104 10.4467 7.64174C8.64192 7.10698 6.70342 7.30751 4.96545 8.1765C3.16064 9.11232 1.89058 10.6498 1.22213 12.5214C0.620531 14.3931 0.75422 16.4653 1.69005 18.2032C2.55903 19.8744 4.02962 21.2113 5.76759 21.8129C3.49486 25.1551 4.297 29.7006 7.5724 32.0401C10.8478 34.4465 15.3933 33.7781 17.8665 30.5695C19.0697 32.0401 20.674 33.0428 22.6125 33.377C23.0136 33.4439 23.4146 33.4439 23.8157 33.4439C25.3531 33.4439 26.8906 32.976 28.2275 32.0401C31.5029 29.6337 32.305 25.1551 30.0323 21.8129C31.8371 21.1444 33.2408 19.8744 34.1098 18.2032C35.1125 16.4653 35.2462 14.4599 34.6446 12.5214ZM32.5056 17.4011C31.8371 18.738 30.7007 19.7407 29.2302 20.2086C28.8959 20.2754 28.6285 20.4091 28.2275 20.4091C27.8933 20.476 27.559 20.6765 27.4253 21.0776C27.2917 21.4118 27.4253 21.8129 27.6927 22.0802C27.9601 22.3476 28.1606 22.5482 28.3612 22.8155C30.166 25.2888 29.6312 28.8316 27.0911 30.6364C25.8879 31.5054 24.4173 31.8396 22.9467 31.6391C21.4761 31.3717 20.1392 30.6364 19.2703 29.4332C19.0697 29.1658 18.936 28.8984 18.7355 28.5642C18.6018 28.23 18.2676 28.0294 17.8665 28.0294C17.5323 28.0294 17.1981 28.23 16.9975 28.5642C16.8638 28.8984 16.6633 29.1658 16.4628 29.4332C14.658 31.9064 11.1152 32.508 8.64192 30.7032C6.16866 28.8984 5.56705 25.3556 7.37187 22.8824C7.5724 22.615 7.77294 22.3476 8.04032 22.1471C8.3077 21.8797 8.37454 21.5455 8.3077 21.1444C8.17401 20.8102 7.90663 20.5428 7.50556 20.476C7.17133 20.4091 6.83711 20.3423 6.50288 20.2754C5.09914 19.8075 3.89593 18.8048 3.22748 17.4679C2.55903 16.131 2.42534 14.5936 2.89326 13.1899C3.36117 11.7861 4.36385 10.5829 5.70074 9.91446C7.03764 9.24601 8.57507 9.11232 9.97882 9.58024C10.313 9.71393 10.5804 9.78077 10.9146 9.98131C11.2489 10.1818 11.6499 10.115 11.9173 9.91446C12.1847 9.71393 12.3852 9.31286 12.3184 8.97863C12.2515 8.64441 12.2515 8.31018 12.2515 7.97596C12.2515 4.90109 14.7917 2.36099 17.8665 2.36099C20.9414 2.36099 23.4815 4.90109 23.4815 7.97596C23.4815 8.31018 23.4815 8.64441 23.4146 8.97863C23.3478 9.31286 23.4815 9.71393 23.8157 9.91446C24.0831 10.115 24.4842 10.1818 24.8184 9.98131C25.1526 9.78077 25.42 9.64708 25.7542 9.58024C27.158 9.11232 28.6954 9.24601 30.0323 9.91446C31.3692 10.5829 32.3719 11.7193 32.8398 13.1899C33.3077 14.5268 33.174 16.0642 32.5056 17.4011Z" fill="white"/>
</svg>

