<svg width="16" height="34" viewBox="0 0 16 34" fill="none" xmlns="http://www.w3.org/2000/svg">
<path fill-rule="evenodd" clip-rule="evenodd" d="M3.74868 17.0804V32.9627C3.74868 33.2033 3.90911 33.3638 4.14975 33.3638H10.0856C10.3262 33.3638 10.4866 33.2033 10.4866 32.9627V16.8397H14.738C14.9786 16.8397 15.1391 16.6793 15.1391 16.4386L15.5401 11.5456C15.5401 11.305 15.3797 11.0643 15.1391 11.0643H10.4866V7.61511C10.4866 6.81297 11.1284 6.17126 11.9305 6.17126H15.2193C15.4599 6.17126 15.6203 6.01083 15.6203 5.77019V0.877144C15.6203 0.636502 15.4599 0.476074 15.2193 0.476074H9.6845C6.39573 0.476074 3.74868 3.12313 3.74868 6.4119V11.1445H0.780769C0.540128 11.1445 0.3797 11.305 0.3797 11.5456V16.4386C0.3797 16.6793 0.540128 16.8397 0.780769 16.8397H3.74868V17.0804Z" fill="white"/>
</svg>

