<svg width="31" height="31" viewBox="0 0 31 31" fill="none" xmlns="http://www.w3.org/2000/svg">
<path d="M19.1419 6.57498C20.7461 6.57498 22.083 5.23808 22.083 3.6338C22.083 2.02952 20.7461 0.692627 19.1419 0.692627C17.5376 0.692627 16.2007 2.02952 16.2007 3.6338C16.2007 5.23808 17.5376 6.57498 19.1419 6.57498ZM19.1419 1.62846C20.2114 1.62846 21.1472 2.49744 21.1472 3.6338C21.1472 4.70332 20.2782 5.63915 19.1419 5.63915C18.0723 5.63915 17.1365 4.77017 17.1365 3.6338C17.2034 2.49744 18.0723 1.62846 19.1419 1.62846Z" fill="#E4F1E6"/>
<path d="M1.36113 30.3049H29.0349C29.3691 30.3049 29.7034 30.1044 29.9039 29.837C30.1044 29.5696 30.1044 29.1685 29.9708 28.9011L29.5028 27.8985C29.3023 27.5643 28.9681 27.3637 28.6339 27.3637H24.1552V14.3958C24.7568 14.1953 25.1579 13.6605 25.1579 12.9921C25.1579 12.3236 24.7568 11.7889 24.1552 11.5883V9.04821C24.1552 8.78083 23.9547 8.5803 23.6873 8.5803C23.4199 8.5803 23.2194 8.78083 23.2194 9.04821V11.5215H21.7488C21.6151 11.5215 21.4146 11.4546 21.3477 11.3209L19.0082 7.845C18.2729 6.70864 16.8023 6.30757 15.5323 6.84233C15.4654 6.30757 15.0643 5.83966 14.5296 5.63912L11.7221 4.63645C10.9199 4.36907 10.1178 4.77014 9.85044 5.57228L9.38252 6.97602C9.11514 6.90917 8.84776 7.04286 8.78092 7.31024C8.71407 7.57762 8.84776 7.845 9.04829 7.91185L8.37984 9.78351C8.11246 9.71666 7.84509 9.85035 7.77824 10.1177C7.7114 10.3851 7.84508 10.6525 8.04562 10.7193C7.5777 12.1231 7.37718 12.3905 7.51087 12.8584C6.84242 12.9921 6.3745 13.5937 6.3745 14.2621C6.3745 14.9306 6.77557 15.5322 7.44402 15.7327C10.7863 16.8691 10.9868 17.0696 11.5884 16.8691L11.1205 20.0108C11.0536 20.345 11.2542 20.0776 7.51087 25.1578C7.04295 25.8263 6.9761 26.6953 7.37717 27.3637H1.8959C1.49483 27.3637 1.16059 27.5643 1.0269 27.8985L0.559001 28.9011C0.425311 29.2354 0.425295 29.5696 0.625829 29.837C0.692674 30.1044 1.0269 30.3049 1.36113 30.3049ZM20.3451 27.2969C20.5456 26.9626 20.6125 26.6284 20.6125 26.2274V21.3477C20.6125 20.6124 20.3451 19.9439 19.8772 19.4092L16.936 16.0669C16.8023 15.9332 16.8023 15.7327 16.8692 15.599L17.805 12.8584L18.2061 13.46C18.674 14.1284 19.4093 14.4626 20.2114 14.4626H23.1526V27.2969H20.3451ZM15.9333 7.71131C16.7355 7.37709 17.6713 7.64447 18.1392 8.37976L20.4788 11.8557C20.7462 12.2568 21.2141 12.5241 21.682 12.5241H23.6205C23.8879 12.5241 24.0884 12.7247 24.0884 12.9921C24.0884 13.2594 23.8879 13.46 23.6205 13.46H20.1446C19.6766 13.46 19.2087 13.2594 18.9413 12.8584L17.0697 10.2514C17.0028 10.1177 16.8023 9.98404 16.6018 10.0509C16.4012 10.0509 16.2675 10.1846 16.2007 10.3183C16.1339 10.452 16.1339 10.6525 16.2676 10.7862L17.0028 11.8557L15.8665 15.2648C15.6659 15.7995 15.7996 16.3343 16.1339 16.7354L19.075 20.0776C19.4093 20.4118 19.5429 20.8798 19.5429 21.4145V26.2942C19.5429 26.829 19.1419 27.2969 18.6071 27.3637C18.3397 27.3637 18.0724 27.2969 17.8718 27.0963C17.6713 26.8958 17.5376 26.6284 17.5376 26.361V23.2193C17.5376 22.5509 17.3371 21.8824 16.8692 21.4145L13.059 17.1364C12.5911 16.5348 12.3905 15.6659 12.6579 14.9306C14.5296 9.04821 14.5296 9.38244 14.5296 9.31559C14.9307 8.64714 15.0643 8.04554 15.9333 7.71131ZM12.9921 11.3878L9.31567 10.1177L9.98412 8.24607L13.6606 9.51613L12.9921 11.3878ZM10.7194 5.9065C10.7863 5.63912 11.1205 5.50543 11.321 5.57228L14.1285 6.57495C14.3959 6.64179 14.5296 6.97602 14.4627 7.17656L14.1954 7.91185C14.0617 8.11238 13.9948 8.31292 13.928 8.51345C13.928 8.5803 14.3291 8.71399 10.2515 7.31024L10.7194 5.9065ZM10.92 15.8664L7.71139 14.73C7.44401 14.6632 7.31032 14.3958 7.31032 14.1284C7.37716 13.9947 7.44403 13.861 7.57772 13.7942C7.71141 13.7274 7.84508 13.7274 7.97877 13.7274C8.51353 13.9279 8.51353 13.9279 8.64722 13.9279C10.1847 14.5295 10.1178 14.5295 10.2515 14.5295C10.5189 14.5295 10.7194 14.3958 10.7194 14.1284C10.7863 13.9279 10.6526 13.6605 10.452 13.5937C8.24616 12.6578 8.71408 12.8584 8.58039 12.8584C8.4467 12.7247 8.37985 12.5241 8.44669 12.3905L8.91461 10.9867L12.5911 12.2568C12.3905 12.7915 11.6552 14.9974 11.4547 15.5322C11.4547 15.8664 11.1873 16.0001 10.92 15.8664ZM8.31299 25.6926L11.7221 20.9466C12.1232 20.4118 12.0563 20.1445 12.4574 17.6044C12.5911 17.7381 12.19 17.337 14.329 19.7434L14.0617 21.214C13.9948 21.5482 14.1954 21.214 9.91729 26.829C9.71675 27.1632 9.24883 27.3637 8.84776 27.23C8.4467 27.1632 8.11247 26.829 8.11247 26.4279C8.04562 26.1605 8.11246 25.8931 8.31299 25.6926ZM14.6633 22.2835C14.9975 21.8156 15.1312 21.2808 15.1312 20.7461L16.2676 22.0161C16.5349 22.3504 16.6686 22.8183 16.6686 23.2193V26.361C16.6686 26.6953 16.7355 27.0295 16.936 27.3637H10.7863L14.6633 22.2835ZM1.36113 29.3022L1.82905 28.2995H28.5002L28.9681 29.3022H1.36113Z" fill="#E4F1E6"/>
</svg>

