<svg width="34" height="34" viewBox="0 0 34 34" fill="none" xmlns="http://www.w3.org/2000/svg">
<path d="M25.6631 10.2619C26.7263 10.2619 27.5882 9.39998 27.5882 8.33675C27.5882 7.27353 26.7263 6.41162 25.6631 6.41162C24.5999 6.41162 23.738 7.27353 23.738 8.33675C23.738 9.39998 24.5999 10.2619 25.6631 10.2619Z" fill="white"/>
<path d="M17.0802 8.89819C12.5882 8.89819 8.97858 12.5078 8.97858 16.9998C8.97858 21.4918 12.5882 25.1014 17.0802 25.1014C21.5722 25.1014 25.1818 21.4918 25.1818 16.9998C25.1818 12.5078 21.5722 8.89819 17.0802 8.89819ZM17.0802 22.1335C14.1925 22.1335 11.8663 19.8073 11.8663 16.9196C11.8663 14.0319 14.1925 11.7057 17.0802 11.7057C19.9679 11.7057 22.2941 14.0319 22.2941 16.9196C22.2941 19.8073 19.9679 22.1335 17.0802 22.1335Z" fill="white"/>
<path d="M23.5775 33.4439H10.4225C4.96791 33.4439 0.556152 29.0321 0.556152 23.5775V10.4225C0.556152 4.96792 4.96791 0.556152 10.4225 0.556152H23.5775C29.0321 0.556152 33.4439 4.96792 33.4439 10.4225V23.5775C33.4439 29.0321 28.9519 33.4439 23.5775 33.4439ZM10.4225 3.60428C6.6524 3.60428 3.60427 6.65241 3.60427 10.4225V23.5775C3.60427 27.3476 6.6524 30.3957 10.4225 30.3957H23.5775C27.3476 30.3957 30.3957 27.3476 30.3957 23.5775V10.4225C30.3957 6.65241 27.3476 3.60428 23.5775 3.60428H10.4225Z" fill="white"/>
</svg>

