<svg xmlns="http://www.w3.org/2000/svg" width="256" height="256"><path fill="#1976D2" fill-opacity=".016" fill-rule="evenodd" d="M0 128.004v128.004l128.25-.254 128.25-.254.254-127.75L257.008 0H0v128.004m.485.496c0 70.4.119 99.053.265 63.672.146-35.38.146-92.98 0-128C.604 29.153.485 58.1.485 128.5"/><path fill="#1976D2" fill-opacity=".115" fill-rule="evenodd" d="M97.106 4.012C94.103 8.158 90 17.699 90 20.538c0 3.137 1.647 1.226 2.833-3.288.687-2.613 2.851-7.367 4.809-10.565 4.202-6.862 3.833-8.703-.536-2.673m7.554-.057C101.567 7.378 97 14.834 97 16.46c0 1.459 1.947.283 2.52-1.522.36-1.134 2.847-4.959 5.527-8.5 5.404-7.14 5.171-8.635-.387-2.483M88.964 9.25c-2.202 3.567-4.458 10.892-5.389 17.5-1.016 7.214 1.169 4.694 2.435-2.807.654-3.882 2.425-9.507 3.935-12.5 2.978-5.904 2.277-7.47-.981-2.193M121 7.546c-12.855 3.518-22.713 10.741-30.364 22.249-5.348 8.045-8.192 14.91-10.647 25.705-1.001 4.4-1.858 7.212-1.905 6.25-.145-3.007-1.843-1.911-2.322 1.5-.252 1.787-.799 4.037-1.217 5-.447 1.031-.332 1.75.281 1.75.571 0 1.336-.934 1.698-2.075.362-1.142.903-1.831 1.203-1.532.299.3-.228 1.723-1.171 3.163-.944 1.439-1.393 2.916-.999 3.281.394.365.918.101 1.163-.587.942-2.637 2.28-1.078 2.28 2.657v3.908l-6.25-6.222C62.27 62.16 49.669 57.309 35.422 58.223c-8.638.555-15.802 3.713-18.516 8.164-2.737 4.488-2.351 5.165 1.228 2.154 4.067-3.423 9.479-6.099 13.866-6.857l3.5-.606-2.5 1.701c-3.737 2.542-8.321 7.234-7.687 7.867.306.307 3.182-1.064 6.392-3.045 6.839-4.221 8.564-4.581 5.299-1.105-3.241 3.45-1.865 4.199 2.62 1.427 2.209-1.365 3.37-1.717 2.846-.864-2.792 4.552-5.582 8.207-8.468 11.092-3.287 3.288-2.807 4.885.877 2.914C35.973 80.479 39.148 80 41.934 80 45.017 80 47 79.56 47 78.876c0-.753-1.844-.971-5.589-.66-3.248.269-4.966.115-4.102-.369 2.077-1.162 7.581-1.386 11.441-.464 2.139.511 3.25.407 3.25-.304 0-.593-.765-1.079-1.7-1.079-1.248 0-1.404-.296-.587-1.113C51.047 73.553 53 74.546 53 76.559c0 1.947 1.637 1.831 2.405-.172.529-1.378.862-1.415 2.299-.25 1.156.938 1.446.973.929.113-.413-.687-.301-1.25.249-1.25s1.266.43 1.591.956c.325.526 1.23.711 2.011.412.781-.3 2.001-.186 2.71.252.78.482-1.748 1.267-6.383 1.984-17.353 2.683-27.709 11.08-29.466 23.893-.843 6.152.956 5.754 2.577-.571.715-2.79 2.361-6.278 3.657-7.75l2.357-2.676-.968 3.493c-2.357 8.505-.176 9.58 2.55 1.257l1.883-5.75.628 3.5c.641 3.566.853 3.376 2.813-2.5.959-2.876 1.003-2.806 1.079 1.691.113 6.709 1.623 6.732 3.359.052 1.473-5.668 1.502-5.701 2.231-2.493 1.047 4.604 2.486 4.03 2.506-1l.017-4.25 2.081 3.25c2.486 3.882 3.326 4.145 2.481.777-.475-1.894-.283-2.344.819-1.921 1.088.417 1.293-.016.839-1.777-.537-2.08-.422-2.182 1.073-.957C62.776 86.061 63 86.011 63 84.5c0-1.438.264-1.526 1.5-.5 1.118.928 1.5.944 1.5.063 0-.649.45-.903 1-.563.55.34 1 .115 1-.5s.45-.84 1-.5c.55.34 1 .115 1-.5s.5-.809 1.112-.431a1.32 1.32 0 0 0 1.809-.441c.5-.809 1.245-.721 2.638.311 1.908 1.414 1.899 1.52-.52 6.136-3.229 6.162-4.025 16.271-1.575 20.01 1.528 2.333 1.713 7.297 1.866 50.252.093 26.215-.055 51.038-.33 55.163l-.5 7.5 6.8.297 6.8.297-1.55-2.998C85.208 215.501 85 208.04 85 162.378c0-47.078.172-52.911 1.611-54.501.977-1.079 1.817-4.342 2.133-8.28.428-5.327.128-7.338-1.662-11.146-2.024-4.306-2.069-4.822-.61-7.049 1.698-2.591 4.103-3.17 4.782-1.152.331.982.736.99 1.89.038 1.184-.976 1.739-.838 2.856.712 1.049 1.456 1.71 1.655 2.716.821 1.051-.873 1.185-.708.637.788-.676 1.846-.641 1.846 1.477-.014 1.919-1.684 2.17-1.713 2.17-.25 0 2.109.947 2.109 2.489.001 1.019-1.394 1.137-1.157.747 1.5-.457 3.111 1.014 4.393 2.185 1.904.324-.687.421-.002.218 1.524-.554 4.148.792 4.117 2.89-.067l1.859-3.707.597 4.708c.788 6.21 1.659 6.857 2.504 1.859.378-2.237 1.026-4.067 1.441-4.067.414 0 1.566 2.685 2.56 5.967.994 3.282 2.19 5.731 2.658 5.441.469-.289.885-2.862.926-5.717l.073-5.191 1.633 4.25c.898 2.338 2.05 4.25 2.558 4.25.509 0 .691-1.912.405-4.25l-.521-4.25 2.886 6c1.587 3.3 2.887 6.563 2.889 7.25.002.688.453 1.25 1.003 1.25 1.458 0 1.224-4.115-.515-9.043l-1.515-4.294 2.124 1.918c2.391 2.159 7.906 12.547 7.906 14.89 0 .841.511 1.529 1.136 1.529 1.662 0 .333-8.16-2.109-12.947-1.106-2.167-3.701-5.598-5.769-7.624-3.364-3.298-3.496-3.605-1.258-2.928 1.375.415 4.17 1.598 6.21 2.627 4.145 2.091 4.79 2.234 4.79 1.057 0-1.815-12.58-6.673-13.486-5.208-.282.456-3.775-.585-7.763-2.313-6.818-2.955-7.983-3.144-19.501-3.154-11.606-.009-12.246-.115-12.171-2.01.043-1.1.306-1.437.583-.75.826 2.046 2.333 1.42 2.408-1 .067-2.139.111-2.151.893-.25.849 2.064.861 2.051 2.379-2.5.275-.825.536-.263.579 1.25.081 2.828 1.521 3.721 2.417 1.5.403-1 .52-1 .583 0 .113 1.788 2.079 1.552 2.079-.25 0-.825.436-1.5.969-1.5.532 0 .709.675.393 1.5-1.03 2.683 1.159 1.581 2.979-1.5.975-1.65 2.422-3 3.216-3 1.871 0 1.844 1.422-.057 3-1.742 1.446-1.97 3-.441 3 .582 0 .826-.377.541-.839-.924-1.494 7.295-5.404 9.955-4.737 1.345.338 2.445.189 2.445-.332 0-1.381-3.071-1.828-6.392-.931-3.725 1.006-5.236.061-2.918-1.825 1.676-1.363 1.606-1.429-.94-.885-1.756.375-2.75.168-2.75-.572 0-.637-.787-1.777-1.75-2.532-1.526-1.198.476-.548 11.5 3.73 1.242.482 2.25.489 2.25.015 0-1.228-7.778-8.092-9.17-8.092-.64 0-.938-.226-.662-.502.276-.276 2.693.158 5.37.964 2.678.805 5.115 1.217 5.415.915.793-.797-3.894-4.377-5.73-4.377-.856 0-1.294-.263-.973-.583.321-.321 4.001.354 8.178 1.5 8.753 2.401 8.572 2.376 8.572 1.157 0-.51-2.588-2.197-5.75-3.75-5.683-2.791-5.712-2.828-2.517-3.136 1.779-.172 5.829.378 9 1.222 3.172.843 6.892 1.805 8.267 2.138l2.5.604-2.369-2.083c-6.861-6.031-22.123-6.534-33.876-1.117-5.663 2.61-7.421 3.029-9.052 2.157-2.319-1.242-1.926-5.109.521-5.109.914 0 1.267.58.914 1.5-.316.825-.125 1.5.425 1.5s1.259-.675 1.575-1.5c.317-.825 1.794-1.5 3.282-1.5 1.723 0 3.772-1.122 5.643-3.089 1.615-1.699 4.925-4.261 7.356-5.694 4.228-2.492 4.371-4.513.159-2.259-1.332.713-2.642.758-3.805.131-2.313-1.248-10.394-3.072-13.966-3.152-2.67-.061-2.698-.108-.566-.965 1.232-.495 4.495-1.2 7.25-1.565 2.755-.366 5.009-1.068 5.009-1.561 0-1.518-5.181-2.96-8.424-2.344-2.36.449-2.694.345-1.434-.448 1.591-1 10.287-3.158 18.238-4.526 2.858-.492 3.586-.962 2.764-1.784-1.255-1.255-12.464-1.412-16.198-.227-2.212.702-2.302.617-1.005-.946C112.093 13.774 125.712 9 133.394 9 135.377 9 137 8.55 137 8s-.787-1.005-1.75-1.011c-.963-.006-3.325-.222-5.25-.479-1.925-.258-5.975.209-9 1.036m-37.398 4.12c-3.225 4.874-5.604 12.204-5.596 17.243C78.013 33.64 79.818 40 81.154 40c.627 0 .755-.715.314-1.75-2.82-6.616-.928-19.853 3.674-25.703 1.11-1.411 1.834-3.119 1.609-3.794-.225-.675-1.642.636-3.149 2.913M72.975 25.565c-2.421 6.368.317 17.453 4.517 18.282 1.447.286 1.299-.255-.836-3.054-2.834-3.715-3.38-7.03-2.23-13.543.834-4.727.051-5.636-1.451-1.685M66.621 37.75c.363 1.513 1.239 3.902 1.947 5.311 1.675 3.331 7.501 9.014 8.566 8.356.455-.281-.736-1.884-2.647-3.562-2.03-1.783-4.198-5.089-5.215-7.953-1.853-5.217-3.756-6.762-2.651-2.152m59.451-.138c-5.559 2.337-10.128 5.489-9.479 6.539.364.588 1.266.382 2.26-.518.909-.823 4.047-2.605 6.973-3.961 5.708-2.644 5.923-4.447.246-2.06m-15.596 2.543c-2.575 2.261-3.236 3.375-2.332 3.934.774.479 1.787.027 2.627-1.172.751-1.073 1.855-1.648 2.452-1.279.624.385.8.209.415-.415-.369-.597.336-1.792 1.568-2.655 1.79-1.253 1.9-1.568.551-1.568-.928 0-3.304 1.42-5.281 3.155m-9.976-1.259c-2.388.525-2.643.8-1.25 1.35 1.98.782 4.75-.007 4.75-1.353 0-.491-.112-.84-.25-.775-.138.065-1.6.415-3.25.778m4.994 1.11c-2.813 3.109-.776 3.73 2.264.691 1.975-1.976 2.276-2.697 1.124-2.697-.864 0-2.389.903-3.388 2.006M62 42.066c0 1.698 2.056 5.161 5.241 8.827 2.723 3.133 2.919 3.878 2.564 9.74-.459 7.565 1.232 7.041 1.967-.61.269-2.802.75-4.835 1.068-4.516.841.841.134 8.673-.969 10.734-.607 1.134-.586 1.759.059 1.759 1.567 0 3.07-3.542 3.07-7.234 0-1.851.454-3.902 1.008-4.558.555-.655.732-.997.394-.76-.338.238-1.13.016-1.759-.493-.628-.509-2.625-2.113-4.437-3.566-1.811-1.452-4.183-4.384-5.27-6.515C62.954 40.989 62 40.077 62 42.066m33.991 4.423c.68.819 1.683 1.213 2.229.875.604-.373.461-.951-.363-1.474-2.157-1.366-3.216-1.027-1.866.599M39 46.873c-2.369.722-2.248.875 2.332 2.924 2.657 1.19 6.179 3.297 7.827 4.683 3.044 2.562 5.498 3.391 4.3 1.454-1.121-1.814-8.665-6.925-9.479-6.422-.424.262-1.008-.143-1.299-.901-.436-1.135.107-1.182 3.094-.265 3.595 1.103 9.685 6.318 11.858 10.154.623 1.1 1.404 1.743 1.737 1.43.332-.314-.546-2.343-1.95-4.509-4.463-6.883-12.162-10.456-18.42-8.548m-9.57 2.014c.301.487 2.015 1.165 3.809 1.505 1.794.34 4.611 1.332 6.261 2.203 3.197 1.689 6.5 2.606 6.5 1.805 0-.267-2.812-1.815-6.25-3.442-5.992-2.834-11.471-3.934-10.32-2.071m27.805 2.155c2.444 2.015 3.909 4.206 4.337 6.491.356 1.897 1.001 3.231 1.434 2.964.432-.268.405-2.176-.059-4.242-.858-3.81-5.113-8.241-7.925-8.25-.815-.003.177 1.359 2.213 3.037m7.464 1.208c.322 1.237.788 4.613 1.036 7.502.247 2.888.859 4.999 1.358 4.691 1.387-.858 1.08-7.094-.542-10.975-1.632-3.907-2.739-4.635-1.852-1.218m-39.281.617c.295.477 2.684 1.168 5.309 1.536 2.625.367 5.788.837 7.028 1.045 3.944.66 1.459-1.157-3.181-2.325-5.311-1.337-9.904-1.466-9.156-.256m71.021 1.066c1.71 1.89 5.131 1.798 3.954-.106-.327-.53-1.225-.722-1.994-.427-.77.296-1.399.101-1.399-.431 0-.533-.52-.969-1.155-.969-.668 0-.418.814.594 1.933M90 54.799c0 .416.701 1.756 1.557 2.978 1.719 2.455.603 2.914-2.736 1.127-2.03-1.086-2.032-1.07-.223 1.992l1.824 3.088 3.291-3.19c1.81-1.755 2.953-3.466 2.539-3.802C94.688 55.719 90 54.075 90 54.799m-3.026 10.153c.62 1.157 1.554 1.84 2.076 1.517 1.38-.853 1.194-1.268-1.126-2.51-1.905-1.019-1.983-.937-.95.993M105.5 64c.34.55.816 1 1.059 1s.441-.45.441-1-.477-1-1.059-1-.781.45-.441 1m2.167 1.667c-.367.366-.667 1.321-.667 2.122 0 1.181.283 1.221 1.5.211.825-.685 1.5-1.64 1.5-2.122 0-1.036-1.384-1.161-2.333-.211m-60.806 4.281c-2.306 1.903-2.311 1.936-.18 1.402 1.199-.301 2.423-1.178 2.718-1.949.717-1.866.269-1.77-2.538.547M85.5 69c.34.55.816 1 1.059 1s.441-.45.441-1-.477-1-1.059-1-.781.45-.441 1m33.25 1.658c-2.062.856-3.75 1.958-3.75 2.449 0 1.17.14 1.15 4.346-.607 3.905-1.632 9.983-1.863 13.154-.5 1.392.598-.052.881-4.75.93-3.786.039-6.75.509-6.75 1.07 0 .572 3.022 1 7.066 1 3.886 0 7.974.486 9.085 1.081 3.036 1.625 3.266.471.501-2.512-4.229-4.563-12.024-5.763-18.902-2.911m-66.207 1.273c-.317.512-.118 1.213.441 1.559.559.345 1.016-.074 1.016-.931 0-1.757-.6-2.015-1.457-.628m30.457.01c0 1.676 1.774 2.092 2.364.553.348-.907-.003-1.494-.895-1.494-.808 0-1.469.423-1.469.941M40.71 74.2c-.691.44.372.776 2.481.785 2.03.008 3.975-.445 4.322-1.006.725-1.173-4.897-.99-6.803.221m49.8.815c.594.962.362 1.15-.846.686-1.055-.404-1.664-.135-1.664.737 0 .882.716 1.187 2 .852 2.234-.584 2.592-1.806.845-2.885-.768-.475-.88-.271-.335.61m-23.431 1.568c.048 1.165.285 1.402.604.605.289-.722.253-1.585-.079-1.917-.332-.332-.568.258-.525 1.312M81.07 79.25c.059 2.724.21 2.926.93 1.25 1.187-2.763 1.187-4.5 0-4.5-.55 0-.968 1.463-.93 3.25m47.552-2.447c-.321.519 1.728 1.251 4.553 1.626 2.826.375 6.392 1.33 7.925 2.123 1.532.792 3.034 1.04 3.337.55.302-.489-1.135-1.559-3.193-2.376-5.143-2.042-11.912-3.073-12.622-1.923m-94.744 5.759c-2.541.783-5.241 2.186-6 3.118-1.229 1.511-1.162 1.605.622.872 5.607-2.305 9.172-3.469 10.75-3.508C40.212 83.02 41 82.55 41 82c0-1.295-1.465-1.179-7.122.562m-2.3 4.704c-6.15 3.502-5.361 4.966.859 1.597C35.497 87.206 38 85.659 38 85.425c0-1.024-2.8-.222-6.422 1.841m20.388 19.535c-21.489 10.696-36.068 28.634-41.943 51.609-2.761 10.795-2.787 28.284-.058 38.954 5.627 21.999 22.253 41.824 43.357 51.7 15.117 7.073 34.739 8.945 51.543 4.917 15.735-3.773 32.873-14.596 42.3-26.715 7.061-9.077 6.754-9.297-1.772-1.266-9.356 8.814-17.846 14.027-28.893 17.74-7.256 2.439-9.395 2.691-23 2.707-16.629.019-21.664-1.028-33.5-6.968-15.148-7.601-26.669-19.115-33.919-33.896-6.111-12.459-7.544-18.977-7.493-34.083.04-11.981.297-13.745 3.287-22.5 1.784-5.225 5.204-12.65 7.601-16.5 5.428-8.721 15.56-18.835 23.769-23.728 9.673-5.765 9.514-5.649 7.755-5.688-.825-.018-4.89 1.654-9.034 3.717M175 114.43c0 4.361-.043 4.418-2.759 3.639-8.013-2.298-13.672 8.3-8.168 15.296 2.256 2.868 7.518 3.644 9.727 1.435.933-.933 1.2-.933 1.2 0 0 .66.9 1.2 2 1.2 1.897 0 2-.667 2-13s-.103-13-2-13c-1.699 0-2 .667-2 4.43m-49 6.37c0 10.424-.684 12.2-4.7 12.2-1.378 0-2.3.601-2.3 1.5 0 1.08 1.105 1.5 3.943 1.5 5.988 0 7.057-2.231 7.057-14.723 0-9.61-.13-10.277-2-10.277-1.864 0-2 .667-2 9.8m57.336-8.233c-.331.862-.111 2.058.489 2.658 1.444 1.444 4.271-.811 3.509-2.798-.732-1.906-3.247-1.818-3.998.14m-46.047 5.615c-4.622 1.231-3.324 3.47 1.731 2.987 5.46-.52 5.413 2.085-.066 3.727-4.887 1.464-6.879 4.777-5.152 8.568 1.03 2.261 1.645 2.455 7.463 2.356l6.342-.108-.352-6.106c-.194-3.358-.553-7.074-.798-8.256-.573-2.769-4.967-4.287-9.168-3.168m19.874.416c-1.23.862-2.163 1.06-2.163.459 0-.581-.675-1.057-1.5-1.057-1.222 0-1.5 1.667-1.5 9 0 8.263.16 9 1.954 9 1.717 0 1.991-.82 2.25-6.75.258-5.894.581-6.875 2.546-7.737 2.263-.993 2.97-2.95 1.413-3.912-.46-.285-1.81.164-3 .997m40.5-.098c-1.464.76-2.663.958-2.663.441 0-.518-.948-.941-2.107-.941-1.51 0-1.935.448-1.5 1.582.334.87.607 4.92.607 9 0 5.927.301 7.418 1.5 7.418 1.131 0 1.5-1.215 1.5-4.935 0-6.957 1.431-10.285 4.252-9.884 2.062.293 2.272.918 2.542 7.569.26 6.429.515 7.25 2.25 7.25 1.717 0 1.956-.71 1.956-5.809 0-6.422 1.607-9.604 4.566-9.039 1.666.318 1.975 1.373 2.228 7.609.26 6.418.515 7.239 2.25 7.239 1.752 0 1.956-.718 1.956-6.889 0-5.159-.455-7.451-1.81-9.125-1.93-2.383-6.554-3.022-8.414-1.162-.765.765-1.846.674-3.761-.316-2.289-1.184-3.083-1.185-5.352-.008M183 127c0 8.333.148 9 2 9s2-.667 2-9-.148-9-2-9-2 .667-2 9m-15.757-4.843c-1.705 1.705-1.568 8.328.202 9.797 4.122 3.421 8.991-1.952 6.98-7.704-1.068-3.054-5.058-4.217-7.182-2.093m-28.714 6.198c-2.467 1.804-1.323 4.9 1.649 4.465 2.83-.414 4.619-5.82 1.927-5.82-.948 0-2.557.61-3.576 1.355M173 146c-2.095 2.941-2.097 3-.151 3 1.091 0 2.247-.562 2.568-1.25.466-1 .7-1 1.166 0 .321.688 1.477 1.25 2.568 1.25 1.946 0 1.944-.059-.151-3-1.175-1.65-2.525-3-3-3-.475 0-1.825 1.35-3 3m-54 10.5V169h5.545c4.555 0 5.985-.439 8-2.455 2.987-2.986 3.136-6.191.422-9.08-1.808-1.924-1.863-2.306-.5-3.437 1.613-1.339 2.01-4.767.768-6.628-1.396-2.091-5.12-3.4-9.669-3.4H119v12.5m88.336-10.933c-.834 2.172 1.282 4.215 2.797 2.7 1.28-1.28.487-4.267-1.133-4.267-.585 0-1.333.705-1.664 1.567m-47.669 1.1c-.367.366-.667 1.491-.667 2.5 0 1.008-.675 1.833-1.5 1.833s-1.5.675-1.5 1.5.675 1.5 1.5 1.5c1.175 0 1.5 1.367 1.5 6.3 0 3.567.521 6.821 1.2 7.5 1.759 1.759 6.8 1.537 6.8-.3 0-.833-.889-1.5-2-1.5-1.778 0-2-.667-2-6s.222-6 2-6c1.111 0 2-.667 2-1.5s-.889-1.5-2-1.5c-1.467 0-2-.667-2-2.5 0-2.353-1.815-3.351-3.333-1.833M123 150.434c0 3.304.223 3.566 3.031 3.566 5.464 0 5.119-6.159-.382-6.816-2.429-.291-2.649-.021-2.649 3.25m17.881 1.573c-2.513 1.468-4.189 6.536-3.455 10.448.796 4.245 3.821 6.545 8.608 6.545 8.171 0 11.902-10.064 5.941-16.025-2.123-2.123-8.208-2.654-11.094-.968m29.786-.34c-1.804 1.804-.378 3 3.482 2.919 5.29-.11 6.112 1.917 1.245 3.068-2.136.505-4.545 2.007-5.699 3.553-1.889 2.529-1.908 2.82-.34 5.213 1.485 2.265 2.297 2.525 7.653 2.449l5.992-.084v-6.67c0-8.76-1.566-11.115-7.39-11.115-2.352 0-4.577.3-4.943.667M187 160.191c0 8.142.151 8.809 2 8.809 1.788 0 2-.667 2-6.3 0-6.498 1.054-8.7 4.165-8.7 2.57 0 3.835 3.112 3.835 9.434 0 4.899.24 5.566 2 5.566 1.751 0 2-.667 2-5.351 0-6.46-1.572-11.397-3.834-12.044-.916-.262-4.029-.419-6.916-.35l-5.25.127v8.809m20-.191c0 8.333.148 9 2 9s2-.667 2-9-.148-9-2-9-2 .667-2 9m9.484-5.799c-2.254 2.679-2.605 3.86-2.152 7.24.703 5.237 3.552 7.559 9.279 7.559 3.584 0 4.389-.335 4.389-1.827 0-1.466-.6-1.739-3.039-1.381-3.806.559-6.961-2.066-6.961-5.792s3.155-6.351 6.961-5.792c2.439.358 3.039.085 3.039-1.381 0-1.493-.806-1.827-4.411-1.827-3.735 0-4.824.491-7.105 3.201m15.971-.746C230.648 155.261 230 156.99 230 160c0 5.532 3.384 9 8.78 9 5.398 0 8.22-3.138 8.22-9.14 0-3.423-.559-5.036-2.314-6.686-3.266-3.068-9.015-2.936-12.231.281m-90.388 2.419c-1.446 2.702-1.343 6.366.239 8.53 1.851 2.532 5.802 1.679 7.661-1.654 1.377-2.47 1.377-3.03.001-5.5-1.944-3.491-6.357-4.26-7.901-1.376m93 0c-2.562 4.789-.255 10.571 3.98 9.971 3.538-.501 5.484-4.961 3.75-8.595-1.673-3.508-6.161-4.306-7.73-1.376M123 161.639c0 3.951.228 4.361 2.429 4.361 2.629 0 5.571-2.349 5.571-4.449 0-1.779-1.953-3.184-5.25-3.778-2.655-.479-2.75-.346-2.75 3.866m52-.91c-3.612 1.375-3.242 5.271.5 5.271 2.219 0 3.5-1.677 3.5-4.582 0-1.457-1.364-1.692-4-.689m-54.844 32.193c.308 8.869.601 10.195 2.768 12.5 3.362 3.575 10.709 3.657 14.77.166 2.676-2.3 2.822-2.88 3.15-12.5.296-8.708.125-10.088-1.25-10.088-1.347 0-1.594 1.474-1.594 9.5 0 10.713-1.43 13.5-6.927 13.5-5.189 0-7.073-3.765-7.073-14.135 0-8.331-.126-8.865-2.094-8.865-2.007 0-2.079.409-1.75 9.922m26.737-9.482c-.288.288-.427 5.82-.309 12.292.181 9.876.473 11.82 1.816 12.091 1.327.268 1.6-.714 1.6-5.75V196h4.583c3.173 0 4.458-.377 4.175-1.225-.258-.775-1.943-1.114-4.583-.924l-4.175.302V186h5.083c3.62 0 4.965-.36 4.671-1.25-.409-1.238-11.775-2.395-12.861-1.31m18.802.671c-2.303 1.34-3.726 5.054-3 7.83.337 1.288 2.526 3.151 5.434 4.625 3.685 1.867 4.871 3.024 4.871 4.751 0 4.338-5.293 6.444-8 3.183-1.703-2.052-3-1.883-3 .393 0 3.945 8.796 4.402 12.545.652 4.444-4.443 3.15-8.652-3.732-12.14-4.291-2.174-4.896-2.855-4.625-5.203.353-3.061 3.873-4.226 6.409-2.121 1.157.96 1.755.967 2.687.035 2.594-2.594-5.624-4.312-9.589-2.005m15.429 7.639c-.626 4.813-1.418 10.438-1.762 12.5-.489 2.939-.301 3.75.871 3.75 1.49 0 2.767-5.604 2.767-12.14 0-1.573.361-2.86.801-2.86.441 0 2.629 3.416 4.864 7.59l4.062 7.591 3.023-6.341c1.663-3.487 3.694-7.215 4.515-8.284 1.372-1.788 1.551-1.284 2.218 6.25.648 7.32.941 8.194 2.749 8.194 1.773 0 1.953-.464 1.453-3.75-.314-2.062-.879-7.125-1.254-11.25-.376-4.125-1.013-8.119-1.417-8.874-.49-.92-2.393 1.687-5.751 7.88l-5.019 9.255-3.548-6.38c-1.952-3.51-4.104-7.619-4.783-9.131-.679-1.512-1.553-2.75-1.943-2.75-.389 0-1.22 3.938-1.846 8.75"/><path fill="#1976D2" fill-opacity=".284" fill-rule="evenodd" d="M117.162 8.992c-7.911 2.847-13.003 6.183-19.354 12.683-7.241 7.41-12.194 15.69-15.447 25.825-2.461 7.67-3.04 12.351-3.261 26.391l-.1 6.39-3.25-4.072c-15.244-19.104-47.643-24.193-58.677-9.216L14.5 70.485 17 68.75c6.92-4.802 11.394-6.988 15.25-7.451l4.25-.511-2.5 1.759c-3.924 2.762-8 6.733-8 7.795 0 .532.788.275 1.75-.573C29.518 68.212 39.391 63 40.573 63c.351 0-.821 1.363-2.604 3.029-4.212 3.935-3.195 4.876 1.685 1.56 5.415-3.68 5.826-3.236 1.839 1.988C39.572 72.094 38 74.595 38 75.135s2.663-1.067 5.918-3.572c3.255-2.505 6.068-4.147 6.25-3.65.183.497 1.213 1.058 2.289 1.245C54.649 69.541 58 72.468 58 74c0 .55.45 1 1 1 2.024 0 .913-2.895-2.077-5.411C55.231 68.165 54.194 67 54.619 67c.424 0 2.034 1.209 3.576 2.687C60.14 71.55 61 71.918 61 70.887c0-.818-.562-2.128-1.25-2.91-.687-.783-.245-.585.984.44 1.342 1.12 2.099 2.706 1.896 3.973-.186 1.161-.146 1.548.089.86.235-.687.86-1.25 1.39-1.25.557 0 .475-.945-.196-2.25-.921-1.789-.903-2.01.086-1.078.685.644 1.837.944 2.562.666 1.565-.6 3.073 5.808 1.846 7.847-.611 1.016-.406 1.003.901-.057 1.193-.969 1.692-1.025 1.692-.191 0 .649.419.922.931.606.512-.317 1.213-.118 1.559.441.407.659-2.491 1.016-8.249 1.016-5.085 0-11.199.67-14.309 1.568-7.415 2.139-15.047 7.512-17.911 12.609-2.622 4.665-4.232 11.574-2.891 12.404.479.295.874-.277.88-1.272.012-2.235 4.406-11.83 5.817-12.702.683-.422.876 1.313.57 5.128l-.461 5.765 1.965-5.883c2.465-7.381 4.268-9.505 3.421-4.031-.725 4.688.13 4.215 2.099-1.161l1.438-3.925.086 4c.145 6.769 1.59 7.144 3.038.788l1.319-5.788L51.88 90l1.579 3.5.344-3.978.345-3.977 2.011 2.477L58.17 90.5l-.506-2.307c-.441-2.008-.301-2.138 1.076-1 1.392 1.15 1.518.968 1.045-1.519-.383-2.016-.229-2.518.539-1.75 1.643 1.643 2.691 1.283 1.957-.674-.574-1.532-.446-1.579 1.032-.378 1.19.968 1.687 1.025 1.687.191 0-.649.47-.891 1.044-.536.574.355 1.586.212 2.25-.319.663-.53 2.251-1.284 3.528-1.676 2.793-.857 6.178 1.767 6.178 4.79 0 1.106-.298 1.713-.663 1.348-1.33-1.329-4.396 5.6-4.989 11.275-.474 4.531-.213 6.573 1.175 9.19 1.62 3.057 1.822 7.712 2.21 50.865.235 26.125.022 50.762-.472 54.75l-.899 7.25h12.536l-1.449-3.468C84.248 213.657 84 204.328 84 161.992c0-49.639.057-51.15 2.016-53.8C88.168 105.281 90.094 92 88.363 92c-.51 0-1.529-2.042-2.266-4.537-1.207-4.087-1.163-4.732.437-6.5 1.9-2.1 4.466-2.633 4.466-.928 0 .702.644.691 2-.035 1.434-.767 2-.76 2 .024 0 .602.45.816 1 .476.55-.34 1-.156 1 .41 0 .565.675.768 1.5.452.845-.325 1.5-.025 1.5.686 0 .815.755.587 2.133-.643 2.123-1.897 2.129-1.894 1.367.595l-.766 2.5 2.286-2 2.285-2-.66 3.412c-.63 3.259-.578 3.337 1.174 1.752 1.747-1.581 1.817-1.505 1.469 1.588l-.365 3.248 2.238-4 2.238-4 .732 4.848c.95 6.298 1.515 6.71 2.358 1.719.378-2.237 1.026-4.067 1.441-4.067.414 0 1.579 2.727 2.588 6.06 1.452 4.797 2.032 5.709 2.778 4.376.518-.926.7-3.765.404-6.31l-.537-4.626 2.169 4.73c3.043 6.639 5.215 5.969 2.636-.814-.892-2.347-.831-2.548.45-1.484.815.676 2.514 3.893 3.777 7.149 1.262 3.255 2.635 5.919 3.05 5.919 1.069 0 .955-1.024-.734-6.591-1.784-5.879-1.741-5.409-.489-5.409 1.43 0 6.819 8.739 8.171 13.25.618 2.062 1.523 3.75 2.011 3.75 1.376 0-.228-7.007-2.747-12-3.091-6.127-6.746-9.35-14.687-12.95-11.852-5.374-25.115-6.256-37.535-2.495-1.817.551-2.142.367-1.645-.929.341-.888 1.022-1.366 1.515-1.061.492.304.895-.204.895-1.128 0-1.382.268-1.46 1.5-.437 1.229 1.02 1.5.951 1.5-.378 0-.892.45-1.622 1-1.622s1.007-1.013 1.015-2.25c.009-1.237.488-2.925 1.066-3.75.831-1.187.924-1.048.444.666-.334 1.191-.138 2.455.434 2.809.579.358 1.041-.186 1.041-1.225 0-1.027.682-2.741 1.515-3.809 1.431-1.833 1.483-1.774.921 1.059l-.594 3 2.057-2.5c1.131-1.375 2.067-2.81 2.079-3.188.012-.379 1.259-.604 2.772-.5 2.068.141 2.716-.246 2.611-1.562-.076-.963-.049-1.75.06-1.75.11 0 3.063 1.122 6.563 2.494 9.05 3.546 9.646 1.764 1.201-3.592-5.039-3.195-3.506-3.831 3.315-1.373 5.022 1.809 5.025 1.809 3.373-.182-.755-.91-2.722-2.242-4.373-2.961l-3-1.308 2.661-.039c1.463-.021 5.513.855 9 1.948 7.594 2.38 7.369 2.357 5.93.623-.635-.765-3.502-2.453-6.372-3.75L122.5 48.5l5.019-.294c3.005-.176 7.601.509 11.457 1.709 3.541 1.102 6.638 1.804 6.883 1.559 1.125-1.125-11.304-5.589-17.011-6.111-6.839-.625-15.946 1.717-22.621 5.818l-3.272 2.01-3.893-3.345c-2.141-1.841-3.931-3.657-3.977-4.038-.047-.38 3.065-.428 6.915-.105s7 .35 7 .059c0-.29-2.523-1.762-5.606-3.27-6.8-3.327-6.055-4.034 5.242-4.975 4.6-.383 8.364-1.048 8.364-1.477 0-.869-6.133-2.701-13-3.883l-4.5-.774 5.5-1.249a685.208 685.208 0 0 1 7.986-1.77c2.261-.473 2.321-.612.67-1.537-.999-.558-3.805-.857-6.236-.664-2.431.193-4.42.028-4.42-.367 0-.945 8.789-3.527 16.697-4.904 9.321-1.623 6.945-3.263-3.837-2.648-4.873.278-8.86.396-8.86.263s1.766-1.41 3.924-2.838C116.236 12.153 125.951 9 131.468 9 133.961 9 136 8.55 136 8c0-1.754-13.126-1.062-18.838.992M96.076 53.644l2.424 2.644-3-.574c-1.65-.316-3.869-.91-4.93-1.32-1.848-.715-1.859-.645-.25 1.652 2.219 3.168 2.125 4.263-.254 2.989C87.08 57.437 86.824 57.759 88.5 61c.853 1.65 1.679 3 1.835 3 .545 0 10.829-10.169 10.498-10.381-.902-.58-6.006-2.619-6.554-2.619-.345 0 .463 1.19 1.797 2.644M109.5 63c-.399.646-.276 1.624.274 2.174.667.667 1.242.609 1.726-.174.399-.646.276-1.624-.274-2.174-.667-.667-1.242-.609-1.726.174m-22.535 1.934c1.445 2.7 1.295 3.38-.586 2.658-1.246-.478-1.498-.156-1.093 1.393.344 1.315.038 2.015-.88 2.015-.773 0-1.406.6-1.406 1.333 0 3.123 1.508 2.349 4.061-2.086 1.942-3.373 2.438-5.109 1.713-5.997-1.608-1.973-2.958-1.462-1.809.684m16.494.133c-.363.586-.419 1.306-.126 1.6.717.716 2.667-.546 2.667-1.726 0-1.278-1.726-1.193-2.541.126M105.5 69c.34.55 1.068 1 1.618 1s.722-.45.382-1c-.34-.55-1.068-1-1.618-1s-.722.45-.382 1M49 71c0 .55.675 1 1.5 1s1.5-.45 1.5-1-.675-1-1.5-1-1.5.45-1.5 1m17.015.191c-.008.93.435 1.969.985 2.309 1.266.782 1.266-.542 0-2.5-.835-1.293-.971-1.266-.985.191M48 74.059c0 .582.45.781 1 .441s1-.816 1-1.059S49.55 73 49 73s-1 .477-1 1.059m6-.118c0 .518.45 1.219 1 1.559.55.34 1-.084 1-.941S55.55 73 55 73s-1 .423-1 .941m27 5.257c0 4.649.243 4.666 1.773.129.856-2.541.786-3.282-.352-3.719-1.087-.417-1.421.427-1.421 3.59m-27.759 27.27c-20.093 9.355-35.23 26.931-42.228 49.032-3.135 9.904-3.871 27.545-1.579 37.85 5.533 24.866 20.576 43.996 43.066 54.767 10.541 5.048 17.866 6.897 30.041 7.583 25.172 1.418 50.177-10.061 65.784-30.2l3.1-4-5.143 4.726c-20.036 18.407-46.492 25.466-71.782 19.152-3.3-.824-10.229-3.538-15.398-6.032-7.852-3.789-10.831-5.959-18.099-13.19-15.29-15.211-21.978-29.983-22.782-50.317-.548-13.862 1.214-23.471 6.362-34.679 6.473-14.098 16.048-25.106 28.545-32.82 5.049-3.116 6.679-4.372 5.622-4.33-.138.005-2.617 1.111-5.509 2.458M175 115.2c0 4.044-.267 4.933-1.2 4-1.843-1.843-6.574-1.426-8.775.775-4.256 4.256-3.604 12.282 1.218 14.988 2.227 1.25 3.236 1.295 5.966.264 2.114-.798 3.406-.881 3.622-.234.185.554.748 1.007 1.252 1.007.509 0 .917-5.788.917-13 0-10.889-.244-13-1.5-13-1.141 0-1.5 1.244-1.5 5.2m-48 4.152c0 10.973-.975 13.648-4.975 13.648-2.022 0-3.025.497-3.025 1.5 0 2.756 6.543 1.896 8.961-1.178 1.863-2.367 2.074-3.78 1.823-12.169-.194-6.492-.679-9.622-1.534-9.905-.935-.31-1.25 1.735-1.25 8.104m57.25-7.634c-2.017.724-1.433 3.282.75 3.282 1.1 0 2-.648 2-1.441 0-1.739-1.058-2.448-2.75-1.841m-48 6.944c-2.445.987-1.233 2.493 1.519 1.889 3.13-.688 6.951 1.475 5.825 3.297-.392.634-1.615 1.152-2.719 1.152-2.796 0-5.63 1.674-6.923 4.09-.846 1.58-.732 2.597.5 4.477 1.684 2.57 4.446 3.093 7.553 1.43 1.252-.67 2.079-.67 2.493 0 1.581 2.558 2.502.432 2.502-5.774 0-8.332-1.657-11.259-6.307-11.144-1.756.043-3.755.306-4.443.583M152 127c0 7.333.278 9 1.5 9 1.165 0 1.5-1.325 1.5-5.929 0-6.048 1.523-9.071 4.571-9.071.786 0 1.429-.675 1.429-1.5 0-1.794-3.111-1.989-4.8-.3-.933.933-1.2.933-1.2 0 0-.66-.675-1.2-1.5-1.2-1.222 0-1.5 1.667-1.5 9m32 0c0 7.333.278 9 1.5 9s1.5-1.667 1.5-9-.278-9-1.5-9-1.5 1.667-1.5 9m8 0c0 7.333.278 9 1.5 9 1.175 0 1.5-1.367 1.5-6.3 0-6.729 1.041-8.7 4.593-8.7 2.771 0 3.407 1.695 3.407 9.082 0 4.594.336 5.918 1.5 5.918s1.5-1.324 1.5-5.918c0-7.504.631-9.082 3.632-9.082 3.002 0 4.368 3.174 4.368 10.148 0 3.568.361 4.899 1.25 4.606 1.741-.575 2.103-11.596.485-14.754-1.559-3.042-6.129-3.858-8.68-1.55-1.582 1.432-1.902 1.439-3.034.075-1.465-1.764-6.117-2.029-7.708-.438-.783.783-1.275.783-1.759 0-1.749-2.829-2.554-.334-2.554 7.913m-23.682-5.51c-4.657 3.262-3.165 11.51 2.083 11.51 3.287 0 4.782-2.225 4.414-6.566-.41-4.829-3.406-7.109-6.497-4.944M138.2 128.2c-2.269 2.269-.862 5.8 2.31 5.8 1.122 0 3.49-3.441 3.49-5.071 0-2.222-3.826-2.703-5.8-.729m-17.984 16.587c-.95.646-1.211 3.852-1 12.293l.284 11.42 3.879.318c7.656.628 12.74-3.745 10.673-9.182-.494-1.3-1.618-2.639-2.498-2.977-1.404-.539-1.352-.861.423-2.636 2.492-2.492 2.547-4.154.234-7.011-1.934-2.388-9.652-3.819-11.995-2.225m52.955 1.31c-1.696 2.716-.45 4.005 1.411 1.46 1.403-1.919 1.433-1.919 2.836 0 .78 1.067 1.711 1.647 2.07 1.289.998-.999-1.771-4.846-3.488-4.846-.835 0-2.108.944-2.829 2.097M207 146.5c0 .833.889 1.5 2 1.5s2-.667 2-1.5-.889-1.5-2-1.5-2 .667-2 1.5m-46.75.24c-.687.235-1.25 1.241-1.25 2.236 0 .996-.787 2.115-1.75 2.488-1.667.647-1.667.74 0 1.968 1.277.94 1.75 2.694 1.75 6.494 0 6.406 1.316 9.074 4.476 9.074 3.437 0 4.103-1.829 1.084-2.977-2.32-.882-2.56-1.491-2.56-6.498 0-5.227.135-5.525 2.5-5.525 1.556 0 2.5-.567 2.5-1.5 0-.922-.937-1.5-2.434-1.5-1.795 0-2.516-.614-2.75-2.343-.182-1.348-.847-2.162-1.566-1.917M123 150.937c0 3.253.36 4.063 1.809 4.063 3.027 0 5.412-2.394 5.036-5.056-.274-1.938-1.018-2.509-3.595-2.757-3.185-.307-3.25-.232-3.25 3.75m17.419 2.379c-2.158 1.856-2.692 3.181-2.692 6.684s.534 4.828 2.692 6.684c5.998 5.159 13.581 1.214 13.581-7.066 0-3.641-.49-4.858-2.635-6.545-3.457-2.72-7.609-2.627-10.946.243m30.831-1.654c-2.645 1.068-1.188 2.576 1.893 1.959 3.315-.663 5.857.64 5.857 3.001 0 .84-1.085 1.378-2.777 1.378-5.776 0-9.6 6.223-6.023 9.8 1.422 1.422 5.694 1.552 7.774.237.947-.599 1.71-.548 2.138.144 1.587 2.568 2.361-.55 1.892-7.626-.349-5.26-.972-7.923-2.005-8.577-1.573-.994-6.616-1.176-8.749-.316m16.172.682c-.284.739-.382 4.676-.219 8.75.232 5.784.625 7.406 1.797 7.406 1.131 0 1.575-1.466 1.806-5.965.343-6.664 1.375-8.535 4.709-8.535 2.851 0 3.485 1.653 3.485 9.082 0 4.594.336 5.918 1.5 5.918 2.41 0 2.125-14.124-.329-16.345-2.164-1.959-6.233-2.163-8.096-.405-1.06 1-1.417 1-1.783 0-.605-1.649-2.222-1.596-2.87.094m20.266-.698c-.379.378-.688 4.47-.688 9.094 0 7.468.195 8.369 1.75 8.07 1.501-.289 1.75-1.533 1.75-8.74 0-7.774-.867-10.37-2.812-8.424m10.639.822c-2.968 2.1-4.666 7.51-3.402 10.836 1.349 3.546 5.264 5.899 9.177 5.515 4.832-.475 4.982-2.819.181-2.819-4.622 0-6.283-1.392-6.283-5.266 0-4.963 1.609-6.734 6.119-6.734 2.79 0 3.92-.388 3.637-1.25-.612-1.863-6.929-2.052-9.429-.282m15.345.575c-4.576 3.599-4.453 11.071.241 14.675 2.734 2.099 7.935 1.525 10.632-1.173C246.352 164.739 247 163.01 247 160c0-7.708-7.437-11.59-13.328-6.957m-90.449 1.514c-3.125 2.189-3.125 8.697 0 10.886 1.222.856 2.572 1.557 3 1.557 1.876 0 4.777-4.25 4.777-7s-2.901-7-4.777-7c-.428 0-1.778.701-3 1.557m93 0c-3.125 2.189-3.125 8.697 0 10.886 1.222.856 2.572 1.557 3 1.557 1.876 0 4.777-4.25 4.777-7s-2.901-7-4.777-7c-.428 0-1.778.701-3 1.557M123 161.5c0 4.262.148 4.5 2.8 4.5 3.389 0 5.2-1.625 5.2-4.665 0-2.436-2.6-4.335-5.934-4.335-1.782 0-2.066.619-2.066 4.5m50.75-.42c-2.123 1.237-2.253 3.257-.314 4.867 2.127 1.765 5.564-.385 5.564-3.482 0-2.669-2.097-3.222-5.25-1.385m-7.522 23.15c-2.359 1.137-3.654 4.283-3.063 7.441.189 1.006 2.482 2.954 5.095 4.329 5.187 2.728 6.44 4.824 4.76 7.962-1.304 2.436-6.152 2.763-8.351.564-1.289-1.289-1.545-1.291-2.035-.016-.63 1.642 2.152 3.49 5.253 3.49 5.489 0 9.725-4.951 8.121-9.491-.387-1.095-2.684-3.15-5.106-4.566-3.618-2.116-4.402-3.098-4.402-5.509 0-2.473.442-2.985 2.81-3.256 1.546-.177 3.459.215 4.25.872 1.145.95 1.44.885 1.44-.321 0-2.704-4.63-3.495-8.772-1.499m16.457-.23c-.28.825-1.052 5.765-1.716 10.979-.664 5.213-1.427 10.05-1.695 10.75-.268.699.173 1.271.981 1.271 1.102 0 1.691-2.063 2.357-8.25l.888-8.25 4.691 8.47c4.523 8.167 4.727 8.376 5.692 5.838.55-1.448 2.482-5.257 4.293-8.465l3.292-5.833.708 3.995c.39 2.197.735 5.907.766 8.245.047 3.416.414 4.25 1.871 4.25 1.723 0 1.747-.578.48-11.687-.733-6.427-1.453-11.807-1.601-11.954-.147-.147-2.42 3.762-5.052 8.687-2.632 4.925-5.101 8.954-5.487 8.954-.387 0-2.785-4.162-5.331-9.25-2.757-5.51-4.834-8.644-5.137-7.75M121 193.277c0 6.706.424 9.883 1.529 11.461 2.95 4.212 13.209 4.118 16.003-.147 2.116-3.228 3.269-20.591 1.368-20.59-1.095 0-1.401 1.94-1.403 8.898-.003 10.403-1.476 13.101-7.152 13.101-5.881 0-7.345-2.591-7.345-13 0-7.333-.278-9-1.5-9-1.226 0-1.5 1.697-1.5 9.277m26 2.223c0 9.556.254 11.5 1.5 11.5 1.152 0 1.5-1.278 1.5-5.5V196h3.941c2.168 0 4.219-.45 4.559-1 .378-.611-1.156-1-3.941-1H150v-9.272l4.5.617c2.694.369 4.5.223 4.5-.364 0-.54-2.7-.981-6-.981h-6v11.5"/><path fill="#1976D2" fill-opacity=".27" fill-rule="evenodd" d="M117.126 9.563c-4.055 1.381-9.3 3.836-11.654 5.456-10.388 7.148-20.51 22.683-24.085 36.968-.949 3.792-1.678 11.128-1.755 17.661-.094 7.949-.447 10.914-1.224 10.272-1.973-1.631-2.308.221-.664 3.669.888 1.862 1.247 3.729.798 4.148-.449.42-1.038.137-1.309-.628-.295-.831-1.287.339-2.463 2.904-2.425 5.29-2.858 14.971-.781 17.474 1.131 1.363 1.64 7.409 2.305 27.381.821 24.672.258 73.623-.936 81.382l-.577 3.75h5.717c5.104 0 5.624-.187 4.859-1.75-.471-.963-.981-25.777-1.133-55.143-.251-48.729-.129-53.554 1.396-55.24.92-1.016 1.885-4.064 2.145-6.775.523-5.438-1.443-15.409-2.864-14.531-.496.307-.901-.174-.901-1.068 0-2.599 1.953-5.534 4.315-6.486 1.718-.692 1.811-.894.435-.944-.963-.034-1.75-.786-1.75-1.67 0-1.018.55-1.396 1.5-1.031.93.356 1.5-.005 1.5-.952 0-.841.45-1.25 1-.91.55.34 1-.335 1-1.5s.437-1.848.971-1.518c.534.33 1.255-.534 1.603-1.919.348-1.388 1.933-3.168 3.529-3.964 2.872-1.433 2.891-1.422 2.306 1.228-.513 2.321-.278 2.178 1.785-1.092 1.763-2.796 2.666-3.475 3.503-2.638 1.594 1.594 3.577.06 2.963-2.289-.331-1.266-.095-1.787.663-1.463.647.277 4.08 1.665 7.627 3.084l6.45 2.579-3.389-3.496c-1.864-1.924-4.204-3.756-5.2-4.072-.996-.316-1.811-.954-1.811-1.417 0-.463 2.362-.213 5.25.556 2.888.768 5.475 1.388 5.75 1.376 1.22-.052-4.375-3.955-5.67-3.955-.796 0-1.195-.41-.885-.91.562-.91 9.166.723 15.058 2.857l2.997 1.086-2.5-2.035c-1.375-1.12-4.412-2.571-6.75-3.224-2.338-.654-4.25-1.545-4.25-1.981 0-1.384 12.575-.854 17.03.718 5.347 1.886 6.593 1.065 1.569-1.034-10.348-4.324-19.91-3.86-31.414 1.524-6.366 2.979-6.399 2.983-9.037 1.092-1.457-1.044-3.773-3.122-5.148-4.619-2.234-2.433-2.287-2.662-.5-2.153 1.944.553 8.468.985 11.5.762.825-.06-.862-1.328-3.75-2.816-2.888-1.488-5.25-2.999-5.25-3.358 0-.358 4.044-.967 8.987-1.354 4.942-.387 9.229-1.095 9.525-1.575.76-1.229-6.115-2.968-11.762-2.974-7.077-.009-5.75-1.647 2.89-3.569 6.05-1.346 7.274-1.906 5.877-2.688-.971-.543-3.734-.717-6.141-.387-9.98 1.368-1.013-2.973 10.991-5.321 7.629-1.492 8.671-1.91 6.326-2.536-2.772-.741-13.247.034-16.511 1.222-1.39.506-1.335.217.318-1.666 2.988-3.402 10.858-7.035 18.851-8.701 3.907-.815 7.302-1.679 7.543-1.921 1.503-1.503-10.633.034-16.768 2.124M95 53c2.448 3.439 2.252 3.55-2.654 1.5-4.76-1.989-4.809-1.96-2.414 1.404 2.816 3.955 2.609 4.427-1.096 2.511l-3.164-1.636 2.13 3.611c2.287 3.876 2.169 4.2-.928 2.542-1.945-1.04-1.954-.987-.362 2.091 1.604 3.102 1.595 3.146-.525 2.473-1.964-.624-2.053-.488-.987 1.504 1.073 2.006.984 2.13-1.065 1.479-1.832-.581-2.12-.402-1.586.987.358.934.651 2.111.651 2.616 0 2.332 2.071.456 4.78-4.332 1.634-2.888 5.528-7.662 8.652-10.61 3.125-2.948 5.543-5.437 5.375-5.53-1.452-.803-7.991-3.61-8.409-3.61-.294 0 .427 1.35 1.602 3m-69.725 8.113c-3.214 1.235-6.059 3.18-7.393 5.053l-2.168 3.044 5.609-3.724c3.961-2.63 7.015-3.848 10.393-4.145l4.784-.421-2.485 1.79c-1.367.984-3.842 3.043-5.5 4.574-2.889 2.668-2.74 2.637 3.568-.75 8.201-4.403 10.221-4.528 6.354-.393l-2.937 3.14 4.795-2.762c5.667-3.264 6.842-2.848 3.163 1.12C40.52 70.807 38.574 74 39.581 74c.358 0 2.929-1.672 5.713-3.716 3.24-2.378 5.208-3.278 5.467-2.5.223.669 1.07 1.216 1.881 1.216.812 0 1.217-.419.901-.931-1.474-2.385 1.961-1.98 4.788.564 1.743 1.568 2.607 2.202 1.919 1.409-.687-.793-1.25-1.771-1.25-2.174 0-.923 4.144-.515 5.922.584.895.553 1.193.394.902-.479-.622-1.866-10.468-6.712-16.123-7.935-7.718-1.669-18.524-1.194-24.426 1.075M109.5 64c-.34.55.11 1 1 1s1.34-.45 1-1c-.34-.55-.79-1-1-1-.21 0-.66.45-1 1m-12.936 3.707c-.542 1.425-.428 1.54.56.56.684-.679.991-1.486.683-1.793-.308-.308-.867.247-1.243 1.233M55 70c0 .55.477 1 1.059 1s.781-.45.441-1-.816-1-1.059-1-.441.45-.441 1m14.607 3.351c1.131 3.326 1.908 4.434 2.47 3.524.611-.988 1.046-.718 1.703 1.06.802 2.166.948 2.215 1.594.533.527-1.372-.344-2.906-3.352-5.911L67.958 68.5l1.649 4.851M50 71c0 .55.477 1 1.059 1s.781-.45.441-1-.816-1-1.059-1-.441.45-.441 1m30.821 8.075c-.213 2.241-.106 4.249.239 4.462.832.514 3.001-6.63 2.338-7.702-1.172-1.897-2.211-.591-2.577 3.24M102 75.542c-.825.182-3.614.609-6.198.948-3.435.451-4.555.989-4.167 2 .292.761 1.168 1.139 1.948.84.779-.299 1.417.009 1.417.685 0 .966.322.963 1.5-.015.989-.821 1.5-.874 1.5-.154 0 .607.739.808 1.664.453 1.119-.43 1.427-.256.941.531-.947 1.532.655 1.51 2.195-.03.933-.933 1.2-.795 1.2.622 0 1.507.26 1.607 1.5.578 1.273-1.056 1.5-.819 1.5 1.569 0 2.709.058 2.741 1.547.872 1.46-1.831 1.512-1.757.921 1.309-.823 4.265.039 4.117 2.359-.404l1.874-3.654.805 5.404.805 5.404.986-4.25c.543-2.338 1.302-4.25 1.687-4.25s1.558 2.813 2.608 6.25l1.908 6.25.538-6 .538-6 2.282 4.5 2.282 4.5-.507-3.75c-.279-2.062-.156-3.75.273-3.75.43 0 2.197 3.037 3.928 6.75 3.22 6.904 4.627 5.682 1.653-1.436-.832-1.991-1.237-3.889-.9-4.218 1.094-1.064 7.331 7.069 9.435 12.305l2.049 5.099-.587-4.5c-1.281-9.814-9.195-17.669-21.984-21.818-5.797-1.881-16.418-3.319-19.5-2.64M84.469 78.05c-.95 1.538.351 2.53 1.635 1.246.718-.718.735-1.277.052-1.699-.56-.346-1.319-.142-1.687.453m-32.239 2.5c-6.386 1.72-9.946 3.499-14.253 7.123-3.456 2.908-8.009 11.473-7.881 14.827.061 1.621.22 1.526.838-.506 1.268-4.168 3.732-8.385 6.133-10.496 1.874-1.648 2.165-1.703 1.661-.319-.336.923-.863 3.398-1.172 5.5-.557 3.79-.548 3.782 1.191-.886.964-2.589 2.363-5.289 3.108-6 1.133-1.08 1.256-.718.752 2.207l-.604 3.5 1.957-4.25c2.168-4.706 3.217-5.424 2.922-2-.106 1.237-.082 3.6.053 5.25l.245 3 .806-3c.444-1.65 1.135-4.35 1.537-6l.73-3 1.329 3 1.328 3 .045-3.25c.054-3.885 1.214-4.171 3.044-.752.736 1.375 1.523 2.313 1.75 2.086.227-.227-.089-1.351-.703-2.498-1.201-2.243-.173-2.813 1.698-.942.859.859.993.567.539-1.169-.493-1.888-.29-2.192 1.108-1.655 1.154.443 1.479.279.997-.501-.478-.774-.163-.947.948-.52.915.351 1.664.299 1.664-.116s.9-.851 2-.969 2.867-.31 3.927-.428c1.059-.118 1.708-.568 1.441-1-.789-1.276-13.434-.771-19.138.764m-3.424 28.593c-27.893 15.135-44.403 47.833-39.855 78.934 4.723 32.301 27.988 57.821 59.808 65.605 10.822 2.648 27.602 2.155 38.741-1.138 14.903-4.405 28.662-13.13 37.637-23.867l4.328-5.177-6.344 5.696c-7.286 6.543-18.303 12.581-29.121 15.961-6.414 2.004-9.527 2.336-21.5 2.293-13.002-.046-14.622-.269-22.729-3.124-17.206-6.058-29.921-15.731-39.394-29.967-19.833-29.808-16.845-67.687 7.37-93.428 4.092-4.35 9.648-9.34 12.347-11.089 4.218-2.733 5.671-3.924 4.656-3.815-.138.014-2.812 1.417-5.944 3.116M176 115.107c0 4.477-.216 5.016-1.75 4.371-4.138-1.739-6.023-1.577-8.73.751-2.264 1.948-2.793 3.229-2.793 6.771 0 3.536.53 4.824 2.777 6.757 2.885 2.482 7.007 2.441 8.812-.086.631-.884.961-.864 1.343.079 1.531 3.772 2.341-.122 2.341-11.25 0-7.667-.387-12.5-1-12.5-.55 0-1 2.298-1 5.107m-49 6.238c0 8.016-.279 9.598-1.963 11.121-1.079.977-2.654 1.511-3.5 1.187-.953-.366-1.537-.032-1.537.878 0 2.176 4.645 1.824 7-.531 1.733-1.733 2-3.333 2-12 0-6-.4-10-1-10-.595 0-1 3.782-1 9.345m57-7.762c0 1.766 2.153 1.459 2.771-.395.218-.654-.317-1.188-1.188-1.188-.87 0-1.583.713-1.583 1.583m-47.25 5.106c-3.025.791-1.899 2.291 1.248 1.661 3.116-.623 6.002.888 6.002 3.142 0 .685-1.615 1.508-3.589 1.829-4.708.764-6.411 2.295-6.411 5.766 0 3.748 3.008 5.455 7.099 4.028 1.627-.567 3.674-.755 4.551-.419 1.389.533 1.541-.318 1.183-6.651-.52-9.196-2.756-11.27-10.083-9.356m19.844 1.061c-1.343 1.282-1.958 1.416-2.297.5-1.271-3.428-2.297-.414-2.297 6.75 0 6.328.304 8 1.452 8 1.083 0 1.528-1.589 1.75-6.25.256-5.372.614-6.389 2.548-7.237 1.238-.543 2.25-1.556 2.25-2.25 0-1.754-1.243-1.577-3.406.487m39.808-.009c-1.252 1.252-1.858 1.392-2.155.5-.228-.683-.826-1.241-1.33-1.241-.505 0-.917 3.6-.917 8 0 6.444.292 8 1.5 8 1.18 0 1.5-1.391 1.5-6.521 0-5.965.211-6.618 2.47-7.647 4.031-1.837 5.53.275 5.53 7.79 0 5.003.323 6.378 1.5 6.378 1.175 0 1.5-1.367 1.5-6.3 0-8.106 2.585-10.972 6.429-7.129 1.075 1.076 1.571 3.444 1.571 7.5 0 3.286.446 5.929 1 5.929.569 0 1-2.948 1-6.845 0-5.361-.396-7.204-1.829-8.5-2.284-2.067-4.103-2.091-6.957-.092-2.023 1.417-2.377 1.417-3.794 0-2.053-2.054-4.858-1.982-7.018.178M184 127c0 4.667.417 8 1 8s1-3.333 1-8-.417-8-1-8-1 3.333-1 8m-17-5c-1.111 1.111-2 3.333-2 5 0 3.083 2.971 7 5.309 7 3.09 0 5.146-2.796 5.146-7 0-6.374-4.45-9.005-8.455-5m-26.752 4.706c-2.987.575-4.808 3.914-3.195 5.858 1.452 1.749 4.124 1.859 5.747.236 1.3-1.3 1.678-6.887.45-6.664-.412.075-1.763.332-3.002.57m33.344 19.794c-1.856 2.832-1.03 3.423 1.048.75 1.288-1.658 1.438-1.649 2.85.177 2.022 2.616 2.854 1.509.93-1.237-1.969-2.812-2.818-2.757-4.828.31M120 156.393c0 12.74.256 13.186 6.884 12 6.893-1.232 9.31-6.429 5.083-10.928-1.808-1.924-1.863-2.306-.5-3.437 2.203-1.829 1.957-6.731-.401-7.993-1.064-.569-3.989-1.035-6.5-1.035H120v11.393m87.694-10.754c-.799.799.104 2.361 1.365 2.361.518 0 .941-.675.941-1.5 0-1.546-1.18-1.987-2.306-.861m-84.444 1.033c-.703.278-1.25 2.208-1.25 4.411 0 3.664.189 3.917 2.929 3.917 4.705 0 7.816-4.359 4.821-6.755-1.72-1.376-4.994-2.168-6.5-1.573m36.417.995c-.367.366-.667 1.454-.667 2.416 0 .963-.562 1.977-1.25 2.255-1 .403-1 .52 0 .583.847.054 1.25 1.943 1.25 5.856 0 6.384 1.899 10.223 5.057 10.223 2.545 0 2.505-1.62-.057-2.29-1.742-.455-2-1.364-2-7.047 0-5.97.191-6.561 2.25-6.957l2.25-.434-2.25-.136c-1.697-.103-2.25-.75-2.25-2.636 0-2.428-.974-3.193-2.333-1.833m-17.167 4.447c-3.239 1.838-4.5 4.038-4.5 7.855 0 6.637 5.211 10.429 11.024 8.021 4.807-1.991 6.62-9.788 3.226-13.876-2.117-2.55-7.012-3.554-9.75-2m30.25-.425c-3.026.791-1.9 1.987 1.413 1.5 2.286-.335 3.533.043 4.5 1.365 1.981 2.709 1.654 3.446-1.528 3.446-3.419 0-8.135 3.431-8.135 5.918 0 .974.923 2.607 2.05 3.627 1.738 1.573 2.51 1.682 5.073.715 1.663-.628 3.665-.895 4.45-.594 1.147.441 1.427-.747 1.427-6.059 0-8.921-2.56-11.666-9.25-9.918m19.473.868c-1.246.872-2.223 1.092-2.223.5 0-.581-.45-1.057-1-1.057-.583 0-1 3.333-1 8s.417 8 1 8c.55 0 1-2.213 1-4.918s.278-5.643.618-6.528c.979-2.553 4.071-3.791 6.382-2.554 1.683.901 2 2.094 2 7.535 0 5.08.321 6.465 1.5 6.465 2.501 0 2.087-12.413-.5-15-2.403-2.403-4.786-2.538-7.777-.443m28.777-.851c-7.398 2.704-8.249 13.728-1.265 16.383 2.779 1.057 8.612.282 7.798-1.036-.267-.432-1.594-.573-2.949-.314-2.965.567-7.584-3.538-7.584-6.739 0-2.844 4.531-7.179 7.273-6.958 3.568.287 4.332-.005 2.727-1.042-1.63-1.054-3.651-1.153-6-.294m14.315.301c-4.881 1.967-5.965 10.434-1.86 14.538 3.302 3.303 7.015 3.139 10.622-.468 4.386-4.386 3.492-11.585-1.734-13.967-2.834-1.291-4.036-1.309-7.028-.103M208 160c0 4.667.417 8 1 8s1-3.333 1-8-.417-8-1-8-1 3.333-1 8m-65.363-5.494c-2.361 2.361-2.925 5.384-1.601 8.58 2.638 6.37 9.964 4.101 9.964-3.086 0-5.798-4.864-8.994-8.363-5.494M235 155c-3.857 3.857-1.247 12 3.845 12 4.689 0 7.096-8.933 3.326-12.345-2.43-2.199-4.738-2.088-7.171.345m-113 6.531c0 5.085 1.532 6.381 5.758 4.871 5.902-2.109 4.106-9.402-2.315-9.402-3.418 0-3.443.034-3.443 4.531m51.04-.079c-3.062 3.689 1.916 7.449 5.335 4.03 2.715-2.715 2.083-5.482-1.253-5.482-1.582 0-3.419.653-4.082 1.452m-1.702 23.123c1.562.87 3.099 1.321 3.417 1.003.818-.818.168-1.206-3.255-1.941l-3-.643 2.838 1.581M121 192.944c0 8.013.251 9.237 2.413 11.75 2.004 2.33 3.207 2.806 7.087 2.806s5.083-.476 7.087-2.806c2.211-2.571 2.397-3.573 2.217-12-.176-8.255-.226-8.479-.494-2.194-.511 11.98-.997 13.471-4.915 15.108-2.889 1.208-3.945 1.237-6.162.175-3.916-1.878-5.202-5.335-5.218-14.033-.009-4.49-.436-7.75-1.015-7.75-.592 0-1 3.648-1 8.944m26 2.556c0 9.556.254 11.5 1.5 11.5 1.17 0 1.5-1.345 1.5-6.105v-6.105l4 .381c2.2.21 4 .032 4-.395 0-.427-1.8-.776-4-.776h-4v-8.89l4.75-.375c4.298-.339 4.155-.392-1.5-.555L147 184v11.5m17.413-9.007c-2.579 3.936-1.161 7.111 4.353 9.745 5.309 2.537 6.583 5.614 3.659 8.844-.954 1.055-1.285 1.918-.735 1.918 1.839 0 4.31-3.628 4.31-6.329 0-2.907-3.103-6.671-5.5-6.671-1.905 0-5.5-3.548-5.5-5.429 0-.785.707-2.135 1.571-3 .865-.864 1.1-1.571.523-1.571-.576 0-1.783 1.122-2.681 2.493m18.219.507c-1.612 9.583-2.742 19.223-2.305 19.661.746.746 1.443-2.45 2.184-10.02.369-3.772 1.025-6.472 1.456-6 .432.473 2.57 4.287 4.752 8.477l3.966 7.618 4.208-8.484c2.314-4.667 4.457-8.236 4.761-7.932.304.304.941 4.017 1.416 8.25.474 4.233 1.103 7.936 1.396 8.23 1.519 1.519 1.628-1.757.396-11.914l-1.362-11.224-4.967 9.169c-2.732 5.043-5.218 9.169-5.525 9.169-.307 0-2.634-4.162-5.173-9.25-4.593-9.206-4.618-9.233-5.203-5.75M163 205.547c0 .712 1.382 1.598 3.072 1.969 4.223.927 4.344.295.312-1.64-2.599-1.246-3.384-1.323-3.384-.329"/></svg>