<svg xmlns="http://www.w3.org/2000/svg" width="256" height="256"><path fill="#1976D2" fill-opacity=".016" fill-rule="evenodd" d="M0 128.004v128.004l128.25-.254 128.25-.254.254-127.75L257.008 0H0v128.004m.485.496c0 70.4.119 99.053.265 63.672.146-35.38.146-92.98 0-128C.604 29.153.485 58.1.485 128.5"/><path fill="#1976D2" fill-opacity=".135" fill-rule="evenodd" d="M144.622 3.251c-2.801 3.673-6.024 10.75-7.076 15.539-1.219 5.551.868 3.47 2.829-2.821 1.031-3.308 3.081-7.691 4.555-9.741C148.81.831 149.234 0 148.11 0c-.555 0-2.124 1.463-3.488 3.251m8.166-.501C149.988 5.728 144 14.889 144 16.196c0 1.918 1.696.521 3.523-2.902 1.087-2.039 3.675-5.864 5.75-8.5 4.069-5.169 3.743-6.54-.485-2.044m-16.824 6.5c-2.282 3.697-4.56 11.243-5.283 17.5-.605 5.241 1 5.681 1.826.5 1.276-7.999 2.719-12.915 4.99-17 2.751-4.949 1.435-5.807-1.533-1M168 7.591c-9.45 2.509-16.094 6.406-23.195 13.606-8.227 8.342-14.903 21.062-17.742 33.803-1.042 4.675-1.932 7.686-1.979 6.691-.122-2.634-1.773-1.182-2.327 2.047-.261 1.519-.811 3.549-1.223 4.512-1.101 2.575.957 2.136 2.344-.5.895-1.701 1.025-1.762.534-.25-.358 1.1-.672 2.543-.698 3.206-.026.663-.422.974-.881.691-.458-.283-.833-.038-.833.544 0 1.409 1.316 1.343 2.8-.141.933-.933 1.2-.313 1.2 2.793v3.993l-6.487-6.329c-10.507-10.253-22.907-14.944-37.091-14.034-8.737.561-15.529 3.596-18.384 8.216-2.957 4.785-2.568 4.952 2.504 1.081 3.95-3.016 14.147-7.164 15.148-6.163.193.193-1.439 1.535-3.627 2.983-3.591 2.376-7.115 6.66-5.479 6.66.36 0 3.247-1.575 6.416-3.5 6.81-4.137 8.211-4.418 5.004-1.004-3.462 3.685-1.822 4.067 3.667.855l4.829-2.826-3.5 4.347c-1.925 2.392-5.198 6.163-7.273 8.382-2.075 2.219-3.56 4.246-3.301 4.506.26.259 1.912-.031 3.672-.644 1.76-.614 5.158-1.116 7.551-1.116 5.928 0 5.553-1.974-.399-2.102-4.579-.099-4.629-.131-1.385-.898 1.851-.437 4.773-.391 6.493.103C98.339 78.244 99 78.23 99 77c0-.55-.765-1-1.7-1-1.288 0-1.419-.281-.542-1.158.876-.876 1.529-.849 2.689.114.842.699 1.284 1.67.983 2.157-.301.488-.12.887.404.887s1.23-.726 1.571-1.613c.529-1.378.862-1.415 2.299-.25 1.156.938 1.446.973.929.113-.473-.787-.173-1.25.808-1.25.857 0 1.559.436 1.559.969 0 .532.653.717 1.452.411.799-.306 2.033-.198 2.742.24.78.482-1.748 1.267-6.383 1.984-12.956 2.003-22.911 7.752-26.874 15.519-2.446 4.794-3.612 12.342-2.055 13.304.7.433 1.122-.173 1.128-1.618.011-2.585 4.239-12.227 5.779-13.179.656-.405.676.805.06 3.545-1.656 7.372.167 7.932 2.688.825 2.073-5.842 2.315-6.154 2.385-3.083.088 3.858 1.025 3.437 2.752-1.239l1.174-3.178.076 4.191c.113 6.252 1.669 6.044 3.356-.448 1.478-5.687 1.499-5.711 2.235-2.472 1.157 5.092 2.483 4.847 2.502-.462l.017-4.809 2.081 3.25c2.497 3.898 3.284 4.12 2.639.741-.412-2.155-.264-2.331 1.049-1.25 1.331 1.096 1.435.881.8-1.666-.642-2.575-.542-2.77.834-1.627C109.753 86.04 110 85.969 110 84.5c0-1.438.264-1.526 1.5-.5 1.118.928 1.5.944 1.5.063 0-.649.45-.903 1-.563.55.34 1 .115 1-.5s.45-.84 1-.5c.55.34 1 .115 1-.5s.5-.809 1.112-.431a1.32 1.32 0 0 0 1.809-.441c.5-.809 1.245-.721 2.638.311 1.91 1.416 1.903 1.511-.42 5.947-3.222 6.153-4.078 16.532-1.666 20.213 1.589 2.426 1.754 6.866 1.884 50.78.079 26.466-.082 51.271-.357 55.121l-.5 7 6.75.296c3.713.162 6.75.101 6.75-.136 0-.237-.672-1.72-1.494-3.296-1.268-2.432-1.495-10.638-1.5-54.403-.006-49.57.07-51.688 1.994-55.461 2.186-4.287 2.743-14.051 1-17.514-.55-1.092-1.477-2.923-2.06-4.069-.809-1.588-.684-2.659.523-4.5 1.706-2.604 4.11-3.189 4.791-1.167.328.975.787.948 2.083-.122 1.435-1.185 1.663-1.143 1.663.309 0 .924.45 1.403 1 1.063.55-.34 1-.086 1 .563 0 .881.382.865 1.5-.063 1.24-1.029 1.5-.93 1.5.569 0 1.693.097 1.685 1.468-.128 1.329-1.756 1.471-1.774 1.5-.191.033 1.802 2.032 2.54 2.032.75 0-.55.388-1 .861-1 .474 0 .647 1.125.384 2.5-.486 2.542 1.172 3.532 2.093 1.25.277-.687.56.325.627 2.25l.123 3.5 2.156-4 2.155-4 .732 4.848c.932 6.181 1.568 6.771 2.418 2.243 1.025-5.466 1.974-5.121 3.961 1.442.994 3.282 2.185 5.967 2.648 5.967.463 0 .875-2.588.916-5.75l.073-5.75 1.633 4.25c1.95 5.075 3.188 5.45 3.306 1 .08-3.028.3-2.806 3.217 3.25 2.675 5.556 3.179 6.124 3.464 3.912.184-1.424-.325-4.504-1.132-6.845l-1.467-4.258 2.434 2.287c2.597 2.44 7.398 11.747 7.398 14.342 0 .859.45 1.562 1 1.562 2.011 0 .922-6.837-2.03-12.745-3.529-7.061-7.405-10.333-17.355-14.648-6.663-2.89-7.894-3.087-19.365-3.097-11.606-.009-12.246-.115-12.171-2.01.043-1.1.306-1.437.583-.75.823 2.038 2.329 1.425 2.454-1 .087-1.693.229-1.817.573-.5.693 2.649 2.126 2.096 2.595-1l.416-2.75.15 2.75c.155 2.836 1.598 3.706 2.488 1.5.403-1 .52-1 .583 0 .113 1.788 2.079 1.552 2.079-.25 0-.825.498-1.5 1.107-1.5s.848.675.531 1.5c-1.016 2.648.871 1.601 2.703-1.5.975-1.65 2.422-3 3.216-3 1.528 0 1.909 1.201.747 2.362-.382.383-.808 1.47-.946 2.417-.198 1.363.103 1.264 1.446-.478 2.057-2.666 6.778-4.569 9.328-3.759 1.027.326 1.868.145 1.868-.401 0-1.425-3.027-1.889-6.392-.98-3.725 1.006-5.236.061-2.918-1.825 1.676-1.363 1.606-1.429-.94-.885-1.996.426-2.75.193-2.75-.849 0-.789-.562-1.703-1.25-2.03-2.929-1.392 3.193.36 8 2.29 2.887 1.16 5.25 1.718 5.25 1.24 0-1.236-7.771-8.102-9.17-8.102-.64 0-.938-.226-.662-.502.276-.276 2.693.158 5.37.964 2.678.805 5.047 1.286 5.265 1.068.821-.821-1.151-2.776-4.173-4.138l-3.13-1.41 4 .655c2.2.36 5.744 1.264 7.876 2.009 8.742 3.054 8.25.231-.657-3.772-5.102-2.293-5.149-2.353-2.111-2.663 2.698-.275 6.889.516 17.392 3.283l2.5.658-2.369-2.083c-7.003-6.156-22.712-6.577-34.121-.914-5.645 2.802-7.175 3.197-8.532 2.205-2.132-1.559-1.523-4.728 1.002-5.214 1.698-.327 1.779-.163.616 1.239-.924 1.112-.982 1.615-.187 1.615.635 0 1.413-.675 1.729-1.5.317-.825 1.794-1.5 3.282-1.5 1.723 0 3.772-1.122 5.643-3.089 1.615-1.699 4.925-4.261 7.356-5.694 4.228-2.492 4.371-4.513.159-2.259-1.332.713-2.642.758-3.805.131-2.313-1.248-10.394-3.072-13.966-3.152-2.433-.055-2.54-.172-.807-.874 1.1-.445 4.363-1.134 7.25-1.53 2.887-.396 5.25-1.14 5.25-1.652 0-1.548-5.147-3.002-8.424-2.379-2.36.449-2.694.345-1.434-.448 1.584-.996 10.303-3.163 18.136-4.507 2.078-.356 3.55-1.016 3.272-1.466-.855-1.384-7.786-1.975-13.05-1.115-2.75.45-5.164.665-5.365.477-.201-.187 1.76-1.689 4.358-3.336C164.205 12.119 175.161 9 180.947 9c4.286 0 3.809-1.613-.697-2.358-4.977-.823-5.819-.758-12.25.949m-37.398 4.075c-3.225 4.874-5.604 12.204-5.596 17.243.007 4.731 1.812 11.091 3.148 11.091.601 0 .766-.758.382-1.75-2.683-6.926-1.311-17.862 3.082-24.569 1.377-2.101 2.327-4.345 2.113-4.987-.214-.643-1.622.695-3.129 2.972m-10.627 13.899c-2.334 6.139-.064 16.246 4.155 18.505 2.478 1.326 2.364.739-.734-3.776-2.359-3.436-2.553-4.43-2.058-10.544.581-7.19.212-8.326-1.363-4.185m-6.356 12.185c1.012 4.232 2.308 6.426 6.202 10.5 3.698 3.868 5.179 4.607 5.179 2.583 0-.641-.286-.88-.636-.531-1.02 1.021-7.278-7.451-8.533-11.552-1.315-4.298-3.204-5.152-2.212-1m59.453-.138c-5.47 2.3-10.132 5.483-9.508 6.492.317.512 1.852.024 3.412-1.087 1.559-1.11 4.765-2.838 7.123-3.84 2.358-1.001 3.858-2.085 3.334-2.409-.524-.324-2.487.056-4.361.844m-15.365 2.765c-2.334 2.078-3.296 3.523-2.5 3.757.711.21 3.009-1.31 5.107-3.376 4.741-4.672 2.57-4.989-2.607-.381m-5.213-.371c-2.813 3.109-.776 3.73 2.264.691 1.975-1.976 2.276-2.697 1.124-2.697-.864 0-2.389.903-3.388 2.006m-5.711.229c1.687.813 2.586.796 3.45-.068.889-.889.347-1.151-2.283-1.099-3.24.063-3.311.134-1.167 1.167M109 42.066c0 1.703 2.059 5.165 5.27 8.859 2.798 3.22 2.945 3.808 2.461 9.842-.355 4.417-.193 6.095.518 5.384.568-.568 1.251-3.301 1.518-6.074.266-2.772.862-4.806 1.324-4.521.968.598.114 8.127-1.206 10.633-.49.93-.505 1.928-.034 2.219 1.235.763 3.149-3.949 3.149-7.755 0-1.789.563-3.859 1.25-4.6.803-.865.834-1.113.085-.693-.64.359-1.315.296-1.5-.14-.184-.436-1.796-1.818-3.581-3.071-1.786-1.254-4.416-4.275-5.845-6.714-2.647-4.517-3.409-5.27-3.409-3.369m34 3.906c0 1.356 1.777 2.198 2.425 1.149.31-.501-.109-1.169-.931-1.485-.822-.315-1.494-.164-1.494.336m-57 .943-2.5.804 2.917 1.179c2.186.884 3.094.892 3.625.034 1.61-2.606 10.8 2.928 13.485 8.12.838 1.621 1.992 2.948 2.563 2.948.571 0-.003-1.864-1.276-4.143-3.936-7.046-12.321-11.031-18.814-8.942m-9.57 1.972c.301.487 2.015 1.165 3.809 1.505 1.794.34 4.611 1.332 6.261 2.203 1.65.872 3.9 1.756 5 1.966 1.729.331 1.661.119-.5-1.56-4.243-3.298-16.142-6.657-14.57-4.114m27.805 2.155c2.481 2.045 3.907 4.2 4.353 6.575.434 2.313 1.002 3.193 1.645 2.55 1.496-1.496-.952-7.801-3.94-10.151-4.257-3.349-6.194-2.383-2.058 1.026M90.68 49.654c-.569.568 8.629 7.346 9.97 7.346.384 0-.392-1.168-1.726-2.595-2.747-2.941-7.383-5.613-8.244-4.751m21.019 2.596c.322 1.237.788 4.613 1.036 7.502.247 2.888.859 4.999 1.358 4.691 1.447-.894 1.05-8.266-.619-11.493-1.816-3.512-2.584-3.815-1.775-.7m30.333-.829c-.059 1.704 3.143 4.449 4.556 3.907.77-.296 1.147-.948.837-1.449-.31-.501-1.012-.634-1.561-.295-.548.339-1.628-.216-2.399-1.234-.771-1.017-1.416-1.435-1.433-.929m-69.614 1.446c.295.477 2.684 1.168 5.309 1.536 2.625.367 5.788.837 7.028 1.045 3.944.66 1.459-1.157-3.181-2.325-5.311-1.337-9.904-1.466-9.156-.256M137 54.557c0 .282.727 1.623 1.615 2.978 1.777 2.712.7 3.239-2.794 1.369-2.03-1.086-2.032-1.07-.223 1.992l1.824 3.088 3.291-3.19c1.81-1.755 2.953-3.466 2.539-3.802-1.28-1.042-6.252-2.978-6.252-2.435m-3.033 10.029c.807 1.053 1.549 2.056 1.65 2.231.1.174.465-.141.811-.7.345-.559-.397-1.563-1.65-2.231-2.148-1.144-2.194-1.104-.811.7m20.7 1.081c-.367.366-.667 1.321-.667 2.122 0 1.181.283 1.221 1.5.211.825-.685 1.5-1.64 1.5-2.122 0-1.036-1.384-1.161-2.333-.211M94 69.982c-2.333 1.809-2.354 1.901-.319 1.38 1.199-.308 2.423-1.19 2.718-1.961.68-1.771.615-1.755-2.399.581M132.5 69c.34.55.816 1 1.059 1s.441-.45.441-1-.477-1-1.059-1-.781.45-.441 1m33.25 1.658c-2.062.856-3.75 1.958-3.75 2.449 0 1.17.14 1.15 4.346-.607 3.905-1.632 9.983-1.863 13.154-.5 1.392.598-.052.881-4.75.93-3.786.039-6.75.509-6.75 1.07 0 .572 3.022 1 7.066 1 3.886 0 7.974.486 9.085 1.081 3.036 1.625 3.266.471.501-2.512-4.229-4.563-12.024-5.763-18.902-2.911m-66.207 1.273c-.317.512-.118 1.213.441 1.559.559.345 1.016-.074 1.016-.931 0-1.757-.6-2.015-1.457-.628m30.457.01c0 1.676 1.774 2.092 2.364.553.348-.907-.003-1.494-.895-1.494-.808 0-1.469.423-1.469.941M87.71 74.2c-.691.44.372.776 2.481.785 2.03.008 3.975-.445 4.322-1.006.725-1.173-4.897-.99-6.803.221m26.369 2.383c.048 1.165.285 1.402.604.605.289-.722.253-1.585-.079-1.917-.332-.332-.568.258-.525 1.312m20.921.038c0 .699.826.976 2 .669 1.1-.288 2-.824 2-1.192s-.9-.669-2-.669-2 .536-2 1.192m-6.93 2.629c.059 2.724.21 2.926.93 1.25 1.187-2.763 1.187-4.5 0-4.5-.55 0-.968 1.463-.93 3.25m47.564-2.466c-.336.543 1.648 1.261 4.541 1.645 2.826.375 6.395 1.332 7.932 2.126 3.335 1.725 3.893 1.78 3.893.386 0-.582-.45-.781-1-.441s-1 .176-1-.363c0-1.904-13.339-5.016-14.366-3.353M180 80.886c0 .41 2.575 1.841 5.721 3.18l6.5 2.767c.429.184.779-.103.779-.636 0-1.056-5.534-3.916-10.122-5.232-1.583-.454-2.878-.49-2.878-.079m-99.201 1.7c-4.388 1.35-6.601 2.945-5.548 3.998.248.249 1.756-.229 3.35-1.061 1.595-.832 4.362-1.79 6.149-2.129 1.787-.339 3.25-1.017 3.25-1.505 0-1.186-1.58-1.033-7.201.697m-2.221 4.68c-2.157 1.229-4.124 2.847-4.371 3.597-.403 1.223 7.605-2.708 10.243-5.028 1.954-1.718-2.059-.74-5.872 1.431m19.893 20.013c-22.358 11.753-35.535 28.009-41.448 51.131-2.54 9.931-2.725 26.564-.41 36.893 6.413 28.617 29.017 51.389 58.379 58.814 7.22 1.826 10.282 2.053 21.465 1.593 8.9-.366 14.98-1.155 19.14-2.485 14.354-4.588 28.82-14.007 37.461-24.391 8.039-9.659 7.757-10.818-.691-2.834-14.825 14.012-28.67 19.934-48.528 20.757-14.666.608-23.883-1.237-36.339-7.272-15.849-7.68-27.588-19.433-34.991-35.034-5.326-11.222-6.875-18.369-6.926-31.951-.054-14.458 1.498-21.089 8.067-34.462 3.914-7.968 6.085-10.899 13.749-18.558 6.362-6.358 11.208-10.198 16.101-12.759 3.85-2.015 6.1-3.663 5-3.663-1.1 0-5.613 1.9-10.029 4.221"/><path fill="#1976D2" fill-opacity=".267" fill-rule="evenodd" d="M163.423 9.363c-8.586 3.193-12.394 5.782-19.197 13.055-7.212 7.71-11.201 14.479-14.778 25.082-2.304 6.828-2.717 9.793-2.824 20.244-.068 6.735-.349 12.23-.624 12.211-.275-.018-1.935-1.985-3.688-4.37-3.776-5.136-13.074-11.591-21.076-14.631-6.833-2.596-20.271-3.125-27.236-1.073-4.137 1.22-12.885 8.567-11.659 9.793.254.255 2.542-1.125 5.084-3.065 4.462-3.406 9.943-5.592 14.048-5.603 1.76-.005 1.706.172-.5 1.647-3.588 2.4-7.973 6.58-7.973 7.602 0 .485 1.237.009 2.75-1.056C78.757 67.08 86.535 63 87.566 63c.355 0-.814 1.363-2.597 3.029-4.212 3.935-3.195 4.876 1.685 1.56 5.415-3.68 5.826-3.236 1.839 1.988C86.572 72.094 85 74.568 85 75.075c0 .984 9.569-5.569 10.623-7.274.42-.679.833-.682 1.252-.008.344.554 1.521 1.165 2.617 1.357 1.096.193 3.175 1.624 4.621 3.182l2.629 2.831.672-2.677c.408-1.624.17-3.328-.604-4.332-.903-1.172-.629-1.103.941.236 1.584 1.351 2.077 2.635 1.727 4.5-.27 1.436-.195 1.935.166 1.11s1.122-1.803 1.692-2.174c.68-.443.543-1.3-.4-2.5-1.284-1.633-1.268-1.695.156-.585.876.683 1.913.921 2.304.529 1.156-1.155 2.571 1.958 2.604 5.73.023 2.631.271 3.128 1 2 .704-1.09.974-1.142.985-.191.008.72.434 1.05.946.734.512-.317 1.183-.168 1.491.33.316.511-4.124 1.084-10.181 1.313-11.399.431-16.528 1.999-24.458 7.474-4.437 3.064-8.811 11.236-8.716 16.286l.067 3.554 1.305-4.176C79.679 98.359 83.676 91 84.59 91c.235 0 .192 2.588-.097 5.75l-.524 5.75 2.097-6c2.564-7.338 4.088-9.222 3.242-4.008-.763 4.701 1.078 4.094 2.187-.721l.753-3.271.848 4.388c.466 2.414 1.045 4.586 1.286 4.828.242.241 1.021-2.156 1.73-5.328l1.291-5.767 1.528 3.44 1.528 3.439.341-3.927.342-3.928 2.431 2.928 2.432 2.927-1.035-2.899c-.948-2.66-.894-2.783.659-1.5 1.535 1.268 1.643 1.134 1.156-1.427-.383-2.016-.229-2.518.539-1.75 1.643 1.643 2.691 1.283 1.957-.674-.574-1.532-.446-1.579 1.032-.378 1.19.968 1.687 1.025 1.687.191 0-.649.419-.922.931-.605.513.316 2.528-.186 4.478-1.116 3.368-1.606 3.65-1.599 5.569.138 1.998 1.808 2.747 4.52 1.249 4.52-1.566 0-4.223 6.665-4.841 12.145-.484 4.295-.231 6.449 1.059 9 1.439 2.845 1.832 8.601 2.584 37.855.823 31.951-.002 71.529-1.541 74.02-.372.602 1.904.98 5.902.98h6.508l-1.449-3.468c-1.201-2.875-1.449-12.204-1.449-54.54 0-49.948.045-51.134 2.053-53.85 2.614-3.535 3.736-13.161 1.975-16.938a182.276 182.276 0 0 0-2.145-4.44c-1.328-2.611-1.076-4.279.918-6.084 1.809-1.637 8.193-1.925 8.197-.371.001.445.414.555.917.244.503-.311 1.104 0 1.337.691.33.98.793.951 2.108-.135 1.493-1.233 1.607-1.176.993.5-.656 1.793-.571 1.787 1.634-.109l2.327-2-.587 2.342c-.567 2.257-.518 2.279 1.343.595 1.863-1.686 1.93-1.65 1.93 1.03 0 2.191.28 2.546 1.323 1.68 1.062-.881 1.244-.461.92 2.127l-.404 3.226 2.434-3.88 2.435-3.88.797 5.38c.464 3.128.994 4.543 1.267 3.38.258-1.1.918-3.125 1.467-4.5.932-2.337 1.145-2.076 3.264 4 1.71 4.906 2.448 6.059 3.006 4.704.407-.989.516-3.793.241-6.232-.599-5.311.393-5.099 2.233.478.736 2.227 1.715 4.05 2.177 4.05 1.197 0 1.039-3.76-.26-6.186-.846-1.583-.818-1.881.125-1.299.673.416 2.601 3.733 4.283 7.371 3.262 7.05 4.815 6.403 2.282-.951-3.083-8.948 1.628-4.828 6.65 5.815 1.622 3.438 3.151 6.25 3.4 6.25.698 0-.748-7.143-2.142-10.573-3.254-8.01-13.263-14.98-25.738-17.921-7.901-1.863-14.619-1.871-22.26-.026-7.548 1.822-7.553 1.822-6.864.026.316-.822.976-1.246 1.469-.941.492.304.895-.204.895-1.128 0-1.382.268-1.46 1.5-.437 1.255 1.042 1.5.889 1.5-.937 0-1.199.45-1.903 1-1.563.555.343 1.007-.409 1.015-1.691.009-1.27.488-2.984 1.066-3.809.831-1.187.924-1.048.444.666-.334 1.191-.138 2.455.434 2.809.573.354 1.055-.171 1.073-1.166.017-.995.722-2.709 1.566-3.809 1.462-1.906 1.504-1.859.889 1l-.645 3 2.057-2.5c1.131-1.375 2.067-2.81 2.079-3.188.012-.379 1.26-.604 2.772-.5 2.107.144 2.715-.237 2.6-1.631-.109-1.312.309-1.636 1.5-1.164 7.906 3.138 12.365 4.601 12.774 4.193.562-.563-7.392-7.171-9.624-7.997-1.062-.393-.916-.565.5-.59 1.1-.019 3.783.6 5.962 1.376 2.179.776 4.067 1.306 4.195 1.177.71-.709-1.664-2.781-4.689-4.094-3.311-1.436-3.348-1.505-.807-1.543 1.463-.021 5.494.843 8.957 1.921 3.463 1.077 6.454 1.801 6.647 1.609.64-.641-5.344-4.425-8.085-5.113-1.485-.373-2.987-1.143-3.338-1.712-.936-1.515 12.168-.33 17.619 1.594 6.427 2.267 6.297 1.127-.211-1.852-8.143-3.728-16.641-4.246-24.75-1.51-3.575 1.207-8.005 3.119-9.845 4.249l-3.345 2.056-4.098-4.099-4.099-4.098 7.194.603c3.956.332 7.193.366 7.193.075 0-.29-2.534-1.767-5.63-3.282-6.739-3.297-6.025-3.983 5.03-4.837 12.01-.927 11.822-2.2-.694-4.709l-8.206-1.646 5.299-1.144c2.915-.629 6.151-1.144 7.191-1.144 1.041 0 2.162-.437 2.492-.971.809-1.309-3.676-2.342-7.985-1.839-1.923.225-3.497.061-3.497-.363 0-.911 7.968-3.245 16.731-4.902 9.175-1.734 6.82-3.291-4.043-2.671-8.968.511-9.015.501-6.61-1.349 5.783-4.449 15.731-7.832 23.172-7.881C181.313 9.011 183 8.55 183 8c0-1.927-13.199-1.008-19.577 1.363m-20.347 44.281 2.424 2.644-3-.574c-1.65-.316-3.877-.913-4.949-1.327-1.761-.681-1.718-.43.449 2.613 1.872 2.628 2.025 3.217.699 2.683l-3.3-1.329c-1.458-.588-1.456-.365.026 2.5.894 1.73 1.818 3.146 2.053 3.146.605 0 10.707-10.174 10.332-10.405-.967-.594-6.002-2.595-6.531-2.595-.345 0 .463 1.19 1.797 2.644m13.563 9.05c-1.126 1.126-.685 2.306.861 2.306.825 0 1.5-.423 1.5-.941 0-1.261-1.562-2.164-2.361-1.365m-22.674 2.24c1.435 2.682 1.296 3.38-.53 2.679-1.202-.461-1.419-.137-.933 1.393.448 1.413.176 1.994-.935 1.994-.862 0-1.567.6-1.567 1.333 0 3.137 1.543 2.374 4.12-2.039 2.027-3.471 2.48-5.071 1.699-6.012-1.654-1.993-3.014-1.515-1.854.652m16.641.65c-.373.973-.15 1.431.581 1.187 1.495-.498 2.318-2.771 1.003-2.771-.537 0-1.249.713-1.584 1.584m-49.523 1.666c.23.138 1.679 1.364 3.223 2.726 2.1 1.854 2.636 2.036 2.132.723-.634-1.653-3.422-3.699-5.039-3.699-.403 0-.545.112-.316.25m51.526.574c-.353.571-.154 1.339.441 1.707 1.486.918 2.012.188 1.021-1.417-.532-.859-1.047-.962-1.462-.29M96 71c0 .55.675 1 1.5 1s1.5-.45 1.5-1-.675-1-1.5-1-1.5.45-1.5 1m17.015-.309c.009.445.452 1.484.985 2.309.835 1.293.971 1.266.985-.191.008-.93-.435-1.969-.985-2.309-.55-.34-.993-.254-.985.191M95 74.059c0 .582.45.781 1 .441s1-.816 1-1.059S96.55 73 96 73s-1 .477-1 1.059m6-.118c0 .518.45 1.219 1 1.559.55.34 1-.084 1-.941S102.55 73 102 73s-1 .423-1 .941m27 5.257c0 4.649.243 4.666 1.773.129.856-2.541.786-3.282-.352-3.719-1.087-.417-1.421.427-1.421 3.59m-27.709 27.247C79.666 116.048 63.423 135.516 57.277 158c-2.789 10.201-2.499 31.19.566 41 7.051 22.571 21.295 39.366 41.657 49.117 10.541 5.048 17.866 6.897 30.041 7.583 25.391 1.431 49.613-9.691 65.771-30.2 3.047-3.868 2.965-3.832-2.486 1.09-13.005 11.742-27.456 18.484-44.138 20.591-23.149 2.924-47.347-6.184-63.851-24.031-32.12-34.735-24.206-90.893 16.257-115.36 7.156-4.327 6.818-4.893-.803-1.345"/><path fill="#1976D2" fill-opacity=".271" fill-rule="evenodd" d="M166 8.886c-9.164 2.963-14.189 6.074-21.031 13.022-4.664 4.737-7.72 9.057-10.692 15.112-5.594 11.402-7.359 18.964-7.587 32.518-.135 8.025-.506 11.025-1.282 10.383-1.842-1.524-2.293.073-.818 2.9 1.801 3.453 1.799 5.542-.006 4.85-3.848-1.477-6.516 16.537-3.021 20.398 1.366 1.51 1.586 7.864 1.75 50.579.103 26.869-.173 51.665-.613 55.102l-.799 6.25h11.98l-1.434-2.75c-1.193-2.287-1.436-11.634-1.441-55.5-.004-31.548.365-52.75.916-52.75 1.18 0 2.913-5.472 3.166-10 .246-4.384-2.017-13.162-3.204-12.429-1.159.717-1.121-.818.101-4.033.542-1.425 2.005-3.001 3.25-3.501 1.726-.694 1.848-.925.515-.974-.963-.034-1.75-.711-1.75-1.504 0-1.933 1.7-2.891 2.336-1.315.296.736.539.507.585-.553.043-.995.529-1.531 1.079-1.191.55.34 1-.035 1-.834 0-.799.675-1.711 1.5-2.028.825-.316 1.5-1.456 1.5-2.533 0-1.198 1.225-2.57 3.154-3.532 3.774-1.883 4.665-1.992 3.046-.373-.66.66-1.198 1.897-1.195 2.75.003.852 1.017-.12 2.253-2.162 1.688-2.789 2.611-3.487 3.711-2.807 1.895 1.171 4.11-.611 3.32-2.67-.483-1.259-.233-1.351 1.359-.499 1.073.574 4.365 1.961 7.315 3.082l5.363 2.038-3.352-3.459c-1.844-1.902-4.167-3.717-5.163-4.033-.996-.316-1.811-.947-1.811-1.402 0-.773 3.129-.3 9 1.36l2.5.708-2.361-2.053C167.841 53.924 166.127 53 165.33 53c-.796 0-1.195-.41-.885-.91.559-.906 9.094.708 15.058 2.846l2.997 1.075-2.423-2.056c-1.332-1.13-4.369-2.576-6.75-3.212-2.38-.637-4.327-1.514-4.327-1.95 0-1.384 12.575-.854 17.03.718 5.347 1.886 6.593 1.065 1.569-1.034-10.415-4.352-20.251-3.852-31.366 1.594l-6.266 3.071-3.83-3.033c-2.106-1.669-4.385-3.703-5.064-4.522-1.276-1.536-.405-1.543 9.138-.071 4.489.693 3.9-.867-1.306-3.463-2.698-1.346-4.905-2.75-4.905-3.121s4.044-.99 8.987-1.377c4.942-.387 9.229-1.095 9.525-1.575.76-1.229-6.115-2.968-11.762-2.974-7.239-.009-5.679-1.709 3.349-3.649 6.789-1.459 7.718-1.884 5.75-2.629-1.292-.489-4.036-.67-6.099-.403-2.062.266-3.75.132-3.75-.299 0-1.278 5.081-3.008 14.578-4.963 7.487-1.542 8.471-1.955 6.115-2.573-2.78-.728-13.269.057-16.511 1.237-1.517.552-1.508.414.09-1.41 2.991-3.415 11.311-7.338 18.93-8.926 3.989-.832 7.451-1.71 7.692-1.952 1.203-1.203-10.091-.106-14.894 1.447M142 53c2.448 3.439 2.252 3.55-2.654 1.5-4.793-2.003-4.824-1.98-2.216 1.683 1.821 2.557 1.933 3.049.569 2.5l-3.408-1.37c-1.458-.586-1.389-.144.466 3 1.197 2.028 1.767 3.687 1.268 3.687-.499 0-1.185-.45-1.525-1-1.515-2.452-2.391-.69-.997 2.006l1.555 3.006 6.931-7.212c3.813-3.967 6.837-7.245 6.722-7.286-.116-.04-1.914-.847-3.995-1.794-5.039-2.291-5.203-2.213-2.716 1.28m-68.5 7.613c-4.387 1.596-5.992 2.719-9 6.302-1.548 1.843-.708 1.53 3.716-1.386 4.037-2.66 7.121-3.891 10.5-4.188l4.784-.421-2.485 1.79c-1.367.984-3.842 3.043-5.5 4.574-2.889 2.668-2.74 2.637 3.568-.75 8.418-4.519 11.172-4.697 6.683-.431L82.5 69.206l4.829-2.691c2.655-1.48 5.081-2.439 5.39-2.13.309.309-1.112 2.414-3.157 4.678-2.044 2.263-3.479 4.354-3.187 4.646.292.292 2.832-1.159 5.644-3.223 3.811-2.798 5.402-3.465 6.247-2.62C99.838 69.438 101 69.283 101 67.5c0-2.15.984-1.871 4.407 1.25 1.659 1.513 2.407 1.952 1.662.976-1.68-2.201-.662-3.463 1.407-1.746 1.205 1 1.524 1.004 1.524.02 0-.993.303-.993 1.5 0 .973.807 1.5.865 1.5.165 0-1.726-7.975-5.924-14.46-7.613-7.352-1.914-19.692-1.885-25.04.061M157 64c0 .55.477 1 1.059 1s.781-.45.441-1-.816-1-1.059-1-.441.45-.441 1m-24.949 5.095c.987 1.844.887 2.02-.831 1.475-1.654-.525-1.878-.234-1.47 1.905.641 3.35 1.856 3.187 3.765-.504C135.188 68.737 134.8 67 132.406 67c-1.189 0-1.258.408-.355 2.095M102 70c0 .55.477 1 1.059 1s.781-.45.441-1-.816-1-1.059-1-.441.45-.441 1m14.607 3.351c1.131 3.326 1.908 4.434 2.47 3.524.609-.985 1.066-.688 1.771 1.149.858 2.232 1.025 2.294 1.694.633.557-1.381-.299-2.883-3.42-6l-4.164-4.157 1.649 4.851M97 71c0 .55.477 1 1.059 1s.781-.45.441-1-.816-1-1.059-1-.441.45-.441 1m8 2c0 .55.477 1 1.059 1s.781-.45.441-1-.816-1-1.059-1-.441.45-.441 1m23.07 6.75.071 4.75 1.417-3.865c1.403-3.826 1.205-5.635-.617-5.635-.518 0-.909 2.138-.871 4.75M149 75.533c-.825.187-3.614.618-6.198.957-3.435.451-4.555.989-4.167 2 .292.761 1.168 1.139 1.948.84.779-.299 1.417.009 1.417.685 0 .966.322.963 1.5-.015.989-.821 1.5-.874 1.5-.154 0 .6.675.832 1.5.516.832-.32 1.5-.029 1.5.653 0 .966.322.963 1.5-.015 1.238-1.027 1.5-.934 1.5.533 0 1.657.123 1.666 1.827.124 1.737-1.573 1.805-1.495 1.392 1.595-.421 3.153-.385 3.19 1.245 1.248 1.628-1.939 1.663-1.9 1.133 1.25-.712 4.234-.084 4.107 2.257-.457l1.901-3.706.805 5.456c.442 3.005 1.001 4.558 1.242 3.457.242-1.1.888-3.125 1.437-4.5.933-2.339 1.145-2.083 3.301 4 2.386 6.731 2.903 6.234 2.601-2.5l-.138-4 2.227 4.5c2.753 5.564 2.668 5.436 3.253 4.85.265-.265.072-1.915-.43-3.666S174.526 86 174.997 86c.908 0 6.003 10.132 6.003 11.938 0 .584.403 1.062.895 1.062.953 0 .069-4.668-1.752-9.25-2.736-6.881 4.549.293 8.377 8.25l2.646 5.5-.549-3.928c-.782-5.596-5.422-12.566-10.752-16.15-7.214-4.852-24.629-9.303-30.865-7.889m-17.531 2.517c-.95 1.538.351 2.53 1.635 1.246.718-.718.735-1.277.052-1.699-.56-.346-1.319-.142-1.687.453m-32.388 2.538c-5.649 1.519-10.907 4.268-14.963 7.824-2.744 2.405-7.119 11.139-7.056 14.088.023 1.1.922-.287 1.998-3.083 1.075-2.795 3.143-6.17 4.596-7.5l2.64-2.417-.687 2.5c-.378 1.375-.92 4.075-1.204 6-.411 2.778-.12 2.403 1.409-1.82 2.458-6.79 4.662-9.219 3.793-4.18-.596 3.453-.575 3.439 1.601-1l2.205-4.5.564 5.5.564 5.5.842-4.5c.813-4.346 2.524-8.607 2.587-6.441.016.582.737 1.932 1.602 3 1.491 1.842 1.544 1.775 1.025-1.309-.637-3.783.502-4.203 2.71-1l1.552 2.25-.603-2.5c-.559-2.317-.47-2.391 1.215-1.008 1.685 1.384 1.762 1.318 1.058-.901-.628-1.98-.471-2.283.908-1.754 1.069.411 1.424.247.99-.456-.458-.74.052-.864 1.573-.381 1.257.399 2.007.32 1.699-.179-.304-.491.315-.989 1.374-1.107l3.854-.428c1.059-.118 1.708-.568 1.441-1-.798-1.291-13.462-.764-19.287.802m-2.819 28.336c-21.451 11.827-35.608 31.796-39.849 56.208-6.043 34.795 13.602 70.485 46.398 84.288 15.917 6.7 35.613 7.892 51.652 3.128 15.589-4.631 29.201-13.274 38.024-24.143l3.981-4.905-6.484 5.841c-8.427 7.592-23.288 14.925-34.943 17.243-9.919 1.972-24.999 1.506-34.541-1.068-14.736-3.976-31.102-14.891-39.925-26.628-10.925-14.534-15.81-28.806-15.877-46.388-.052-13.566 1.838-21.67 7.995-34.287 5.068-10.385 15.674-22.716 24.401-28.371 4.241-2.748 5.638-3.895 4.656-3.824-.138.01-2.607 1.318-5.488 2.906"/></svg>