<svg width="30" height="34" viewBox="0 0 30 34" fill="none" xmlns="http://www.w3.org/2000/svg">
<path d="M15.4111 14.3973C15.4111 16.2466 16.918 17.822 18.8358 17.822C20.7536 17.822 22.2604 16.3151 22.2604 14.3973C22.2604 12.4795 20.7536 10.9727 18.8358 10.9727C16.918 10.9727 15.4111 12.548 15.4111 14.3973ZM18.8358 12.4795C19.9317 12.4795 20.8221 13.3699 20.8221 14.4658C20.8221 15.5617 19.9317 16.4521 18.8358 16.4521C17.7399 16.4521 16.8495 15.5617 16.8495 14.4658C16.8495 13.3699 17.7399 12.4795 18.8358 12.4795Z" fill="white"/>
<path d="M10.9593 11.0411C9.11001 11.0411 7.53467 12.548 7.53467 14.4658C7.53467 16.3836 9.04152 17.8905 10.9593 17.8905C12.8771 17.8905 14.384 16.3836 14.384 14.4658C14.384 12.548 12.8086 11.0411 10.9593 11.0411ZM10.9593 16.3836C9.86344 16.3836 8.97302 15.4932 8.97302 14.3973C8.97302 13.3014 9.86344 12.411 10.9593 12.411C12.0552 12.411 12.9456 13.3014 12.9456 14.3973C12.9456 15.4932 12.0552 16.3836 10.9593 16.3836Z" fill="white"/>
<path d="M10.9593 20.6301C9.11001 20.6301 7.53467 22.137 7.53467 24.0548C7.53467 25.9041 9.04152 27.4794 10.9593 27.4794C12.8771 27.4794 14.384 25.9726 14.384 24.0548C14.384 22.137 12.8086 20.6301 10.9593 20.6301ZM10.9593 25.9726C9.86344 25.9726 8.97302 25.0822 8.97302 23.9863C8.97302 22.8904 9.86344 22 10.9593 22C12.0552 22 12.9456 22.8904 12.9456 23.9863C12.9456 25.0822 12.0552 25.9726 10.9593 25.9726Z" fill="white"/>
<path d="M28.9044 12.6849L18.0825 1.93146C16.3702 0.219135 13.6305 0.219135 11.9181 1.93146L1.0962 12.6849C0.753739 13.0274 0.753739 13.5753 1.0962 13.9178C1.43867 14.2602 1.98662 14.2602 2.32908 13.9178L4.72634 11.5205V30.4246C4.72634 32 6.02771 33.3013 7.53456 33.3013H22.3291C23.9044 33.3013 25.1373 32 25.1373 30.4246V11.5205L27.6715 13.9178C27.8085 14.0548 28.0825 14.1917 28.288 14.1917C28.4935 14.1917 28.6989 14.1232 28.9044 13.9178C29.1784 13.5753 29.1784 13.0274 28.9044 12.6849ZM20.7537 31.863H16.8496V23.4383C16.8496 22.6849 17.4661 22.0685 18.2195 22.0685H19.3154C20.0688 22.0685 20.6852 22.6849 20.6852 23.4383V31.863H20.7537ZM23.7674 30.4246C23.7674 31.2465 23.151 31.863 22.3976 31.863H22.1921V23.4383C22.1921 21.863 20.8907 20.6301 19.3839 20.6301H18.288C16.7126 20.6301 15.4798 21.9315 15.4798 23.4383V31.863H7.60305C6.84963 31.863 6.23319 31.2465 6.23319 30.4246V10.0821L13.151 3.16434C14.1784 2.13694 15.8222 2.13694 16.9181 3.16434L23.8359 10.0821V30.4246H23.7674Z" fill="white"/>
</svg>

